Loretta - ExtraLight Display.ufo
<glyph name="exclam" format="2">
	<advance width="230"/>
	<unicode hex="0021"/>
	<outline>
		<contour>
			<point x="119" y="159" type="line"/>
			<point x="129" y="159" type="line"/>
			<point x="155" y="656" type="line" smooth="yes"/>
			<point x="157" y="689"/>
			<point x="145" y="705"/>
			<point x="124" y="705" type="curve" smooth="yes"/>
			<point x="102" y="705"/>
			<point x="90" y="688"/>
			<point x="92" y="656" type="curve" smooth="yes"/>
		</contour>
		<contour>
			<point x="123" y="-10" type="curve" smooth="yes"/>
			<point x="147" y="-10"/>
			<point x="168" y="9"/>
			<point x="168" y="35" type="curve" smooth="yes"/>
			<point x="168" y="61"/>
			<point x="147" y="80"/>
			<point x="123" y="80" type="curve" smooth="yes"/>
			<point x="99" y="80"/>
			<point x="78" y="61"/>
			<point x="78" y="35" type="curve" smooth="yes"/>
			<point x="78" y="9"/>
			<point x="99" y="-10"/>
		</contour>
	</outline>
</glyph>
<glyph name="dollar" format="2">
	<advance width="516"/>
	<unicode hex="0024"/>
	<outline>
		<contour>
			<point x="247" y="-12" type="curve" smooth="yes"/>
			<point x="383" y="-12"/>
			<point x="466" y="67"/>
			<point x="466" y="174" type="curve" smooth="yes"/>
			<point x="466" y="398"/>
			<point x="98" y="318"/>
			<point x="98" y="515" type="curve" smooth="yes"/>
			<point x="98" y="593"/>
			<point x="156" y="647"/>
			<point x="244" y="647" type="curve" smooth="yes"/>
			<point x="333" y="647"/>
			<point x="415" y="591"/>
			<point x="420" y="459" type="curve"/>
			<point x="432" y="459" type="line"/>
			<point x="432" y="612" type="line"/>
			<point x="372" y="643"/>
			<point x="322" y="659"/>
			<point x="262" y="659" type="curve" smooth="yes"/>
			<point x="131" y="659"/>
			<point x="59" y="580"/>
			<point x="59" y="485" type="curve" smooth="yes"/>
			<point x="59" y="269"/>
			<point x="427" y="353"/>
			<point x="427" y="142" type="curve" smooth="yes"/>
			<point x="427" y="59"/>
			<point x="370" y="0"/>
			<point x="262" y="0" type="curve" smooth="yes"/>
			<point x="152" y="0"/>
			<point x="84" y="61"/>
			<point x="74" y="215" type="curve"/>
			<point x="62" y="215" type="line"/>
			<point x="50" y="48" type="line"/>
			<point x="85" y="22"/>
			<point x="158" y="-12"/>
		</contour>
		<contour>
			<point x="258" y="-90" type="line"/>
			<point x="273" y="-90" type="line"/>
			<point x="273" y="740" type="line"/>
			<point x="258" y="740" type="line"/>
		</contour>
	</outline>
</glyph>
<glyph name="plus" format="2">
	<advance width="541"/>
	<unicode hex="002B"/>
	<outline>
		<contour>
			<point x="253" y="72" type="line"/>
			<point x="285" y="72" type="line"/>
			<point x="285" y="474" type="line"/>
			<point x="253" y="474" type="line"/>
		</contour>
		<contour>
			<point x="70" y="259" type="line"/>
			<point x="471" y="259" type="line"/>
			<point x="471" y="289" type="line"/>
			<point x="70" y="289" type="line"/>
		</contour>
	</outline>
</glyph>
<glyph name="comma" format="2">
	<advance width="196"/>
	<unicode hex="002C"/>
	<outline>
		<contour>
			<point x="53" y="-115" type="line"/>
			<point x="117" y="-98"/>
			<point x="150" y="-37"/>
			<point x="150" y="16" type="curve" smooth="yes"/>
			<point x="150" y="59"/>
			<point x="129" y="79"/>
			<point x="102" y="79" type="curve" smooth="yes"/>
			<point x="73" y="79"/>
			<point x="56" y="56"/>
			<point x="56" y="32" type="curve" smooth="yes"/>
			<point x="56" y="12"/>
			<point x="68" y="-13"/>
			<point x="102" y="-13" type="curve" smooth="yes"/>
			<point x="119" y="-13"/>
			<point x="134" y="-7"/>
			<point x="143" y="5" type="curve"/>
			<point x="134" y="0" type="line"/>
			<point x="131" y="-46"/>
			<point x="100" y="-90"/>
			<point x="50" y="-106" type="curve"/>
		</contour>
	</outline>
</glyph>
<glyph name="hyphen" format="2">
	<advance width="350"/>
	<unicode hex="002D"/>
	<outline>
		<contour>
			<point x="50" y="223" type="line"/>
			<point x="300" y="223" type="line"/>
			<point x="300" y="253" type="line"/>
			<point x="50" y="253" type="line"/>
		</contour>
	</outline>
</glyph>
<glyph name="period" format="2">
	<advance width="230"/>
	<unicode hex="002E"/>
	<outline>
		<contour>
			<point x="115" y="-10" type="curve" smooth="yes"/>
			<point x="139" y="-10"/>
			<point x="160" y="9"/>
			<point x="160" y="35" type="curve" smooth="yes"/>
			<point x="160" y="61"/>
			<point x="139" y="80"/>
			<point x="115" y="80" type="curve" smooth="yes"/>
			<point x="91" y="80"/>
			<point x="70" y="61"/>
			<point x="70" y="35" type="curve" smooth="yes"/>
			<point x="70" y="9"/>
			<point x="91" y="-10"/>
		</contour>
	</outline>
</glyph>
<glyph name="slash" format="2">
	<advance width="302"/>
	<unicode hex="002F"/>
	<outline>
		<contour>
			<point x="10" y="-100" type="line"/>
			<point x="42" y="-100" type="line"/>
			<point x="292" y="742" type="line"/>
			<point x="260" y="742" type="line"/>
		</contour>
	</outline>
</glyph>
<glyph name="two" format="2">
	<advance width="425"/>
	<unicode hex="0032"/>
	<outline>
		<contour>
			<point x="25" y="0" type="line"/>
			<point x="365" y="0" type="line"/>
			<point x="384" y="150" type="line"/>
			<point x="375" y="152" type="line"/>
			<point x="354" y="49"/>
			<point x="312" y="40"/>
			<point x="250" y="40" type="curve" smooth="yes"/>
			<point x="70" y="40" type="line"/>
			<point x="65" y="30" type="line"/>
			<point x="176" y="102" type="line" smooth="yes"/>
			<point x="252" y="151"/>
			<point x="355" y="241"/>
			<point x="355" y="350" type="curve" smooth="yes"/>
			<point x="355" y="426"/>
			<point x="306" y="490"/>
			<point x="212" y="490" type="curve" smooth="yes"/>
			<point x="125" y="490"/>
			<point x="60" y="436"/>
			<point x="47" y="347" type="curve"/>
			<point x="56" y="345" type="line"/>
			<point x="69" y="415"/>
			<point x="118" y="460"/>
			<point x="189" y="460" type="curve" smooth="yes"/>
			<point x="267" y="460"/>
			<point x="305" y="411"/>
			<point x="305" y="340" type="curve" smooth="yes"/>
			<point x="305" y="226"/>
			<point x="207" y="140"/>
			<point x="124" y="82" type="curve" smooth="yes"/>
			<point x="21" y="10" type="line"/>
		</contour>
	</outline>
</glyph>
<glyph name="three" format="2">
	<advance width="452"/>
	<unicode hex="0033"/>
	<outline>
		<contour>
			<point x="40" y="-220" type="line"/>
			<point x="272" y="-191"/>
			<point x="411" y="-69"/>
			<point x="411" y="73" type="curve" smooth="yes"/>
			<point x="411" y="176"/>
			<point x="343" y="236"/>
			<point x="252" y="236" type="curve" smooth="yes"/>
			<point x="202" y="236"/>
			<point x="156" y="221"/>
			<point x="113" y="174" type="curve"/>
			<point x="113" y="171" type="line"/>
			<point x="399" y="470" type="line"/>
			<point x="394" y="478" type="line"/>
			<point x="53" y="478" type="line"/>
			<point x="23" y="327" type="line"/>
			<point x="33" y="325" type="line"/>
			<point x="54" y="426"/>
			<point x="74" y="438"/>
			<point x="149" y="438" type="curve" smooth="yes"/>
			<point x="356" y="438" type="line"/>
			<point x="362" y="447" type="line"/>
			<point x="104" y="174" type="line"/>
			<point x="110" y="165" type="line"/>
			<point x="137" y="186"/>
			<point x="175" y="208"/>
			<point x="225" y="208" type="curve" smooth="yes"/>
			<point x="294" y="208"/>
			<point x="355" y="159"/>
			<point x="355" y="68" type="curve" smooth="yes"/>
			<point x="355" y="-77"/>
			<point x="240" y="-185"/>
			<point x="39" y="-212" type="curve"/>
		</contour>
	</outline>
</glyph>
<glyph name="four" format="2">
	<advance width="528"/>
	<unicode hex="0034"/>
	<outline>
		<contour>
			<point x="347" y="-208" type="line" name="_corner00"/>
			<point x="392" y="-208" type="line" name="_corner01"/>
			<point x="392" y="478" type="line"/>
			<point x="361" y="478" type="line"/>
			<point x="36" y="9" type="line"/>
			<point x="41" y="0" type="line"/>
			<point x="508" y="0" type="line"/>
			<point x="508" y="35" type="line"/>
			<point x="61" y="35" type="line"/>
			<point x="63" y="28" type="line"/>
			<point x="345" y="438" type="line"/>
			<point x="347" y="438" type="line"/>
		</contour>
	</outline>
</glyph>
<glyph name="seven" format="2">
	<advance width="455"/>
	<unicode hex="0037"/>
	<outline>
		<contour>
			<point x="104" y="-208" type="line"/>
			<point x="174" y="-208" type="line"/>
			<point x="447" y="471" type="line"/>
			<point x="442" y="478" type="line"/>
			<point x="31" y="478" type="line"/>
			<point x="9" y="297" type="line"/>
			<point x="19" y="297" type="line"/>
			<point x="38" y="413"/>
			<point x="58" y="438"/>
			<point x="133" y="438" type="curve" smooth="yes"/>
			<point x="427" y="438" type="line"/>
			<point x="424" y="443" type="line"/>
		</contour>
	</outline>
</glyph>
<glyph name="question" format="2">
	<advance width="482"/>
	<unicode hex="003F"/>
	<outline>
		<contour>
			<point x="218" y="167" type="curve"/>
			<point x="226" y="174" type="line"/>
			<point x="214" y="192"/>
			<point x="205" y="213"/>
			<point x="205" y="240" type="curve" smooth="yes"/>
			<point x="205" y="371"/>
			<point x="423" y="397"/>
			<point x="423" y="555" type="curve" smooth="yes"/>
			<point x="423" y="633"/>
			<point x="370" y="704"/>
			<point x="246" y="704" type="curve" smooth="yes"/>
			<point x="155" y="704"/>
			<point x="90" y="666"/>
			<point x="50" y="626" type="curve"/>
			<point x="57" y="482" type="line"/>
			<point x="67" y="482" type="line"/>
			<point x="67" y="611"/>
			<point x="129" y="694"/>
			<point x="238" y="694" type="curve" smooth="yes"/>
			<point x="329" y="694"/>
			<point x="373" y="636"/>
			<point x="373" y="567" type="curve" smooth="yes"/>
			<point x="373" y="417"/>
			<point x="166" y="397"/>
			<point x="166" y="264" type="curve" smooth="yes"/>
			<point x="166" y="238"/>
			<point x="174" y="198"/>
		</contour>
		<contour>
			<point x="217" y="-10" type="curve" smooth="yes"/>
			<point x="241" y="-10"/>
			<point x="262" y="9"/>
			<point x="262" y="35" type="curve" smooth="yes"/>
			<point x="262" y="61"/>
			<point x="241" y="80"/>
			<point x="217" y="80" type="curve" smooth="yes"/>
			<point x="193" y="80"/>
			<point x="172" y="61"/>
			<point x="172" y="35" type="curve" smooth="yes"/>
			<point x="172" y="9"/>
			<point x="193" y="-10"/>
		</contour>
	</outline>
</glyph>
<glyph name="at" format="2">
	<advance width="903"/>
	<unicode hex="0040"/>
	<outline>
		<contour>
			<point x="443" y="-128" type="curve" smooth="yes"/>
			<point x="573" y="-128"/>
			<point x="669" y="-80"/>
			<point x="741" y="-28" type="curve"/>
			<point x="734" y="-19" type="line"/>
			<point x="646" y="-79"/>
			<point x="553" y="-112"/>
			<point x="448" y="-112" type="curve" smooth="yes"/>
			<point x="244" y="-112"/>
			<point x="114" y="15"/>
			<point x="114" y="247" type="curve" smooth="yes"/>
			<point x="114" y="494"/>
			<point x="262" y="608"/>
			<point x="465" y="608" type="curve" smooth="yes"/>
			<point x="634" y="608"/>
			<point x="789" y="529"/>
			<point x="789" y="301" type="curve" smooth="yes"/>
			<point x="789" y="169"/>
			<point x="737" y="94"/>
			<point x="655" y="94" type="curve" smooth="yes"/>
			<point x="587" y="94"/>
			<point x="568" y="145"/>
			<point x="568" y="222" type="curve" smooth="yes"/>
			<point x="568" y="429" type="line"/>
			<point x="523" y="429" type="line"/>
			<point x="523" y="204" type="line" smooth="yes"/>
			<point x="523" y="132"/>
			<point x="561" y="79"/>
			<point x="644" y="79" type="curve" smooth="yes"/>
			<point x="750" y="79"/>
			<point x="807" y="166"/>
			<point x="807" y="303" type="curve" smooth="yes"/>
			<point x="807" y="541"/>
			<point x="637" y="623"/>
			<point x="463" y="623" type="curve" smooth="yes"/>
			<point x="253" y="623"/>
			<point x="96" y="501"/>
			<point x="96" y="246" type="curve" smooth="yes"/>
			<point x="96" y="28"/>
			<point x="211" y="-128"/>
		</contour>
		<contour>
			<point x="412" y="80" type="curve" smooth="yes"/>
			<point x="491" y="80"/>
			<point x="526" y="148"/>
			<point x="537" y="227" type="curve"/>
			<point x="524" y="232" type="line"/>
			<point x="517" y="161"/>
			<point x="487" y="95"/>
			<point x="425" y="95" type="curve" smooth="yes"/>
			<point x="361" y="95"/>
			<point x="336" y="162"/>
			<point x="336" y="255" type="curve" smooth="yes"/>
			<point x="336" y="382"/>
			<point x="379" y="421"/>
			<point x="438" y="421" type="curve" smooth="yes"/>
			<point x="487" y="421"/>
			<point x="512" y="396"/>
			<point x="543" y="363" type="curve"/>
			<point x="552" y="368" type="line"/>
			<point x="516" y="407"/>
			<point x="483" y="432"/>
			<point x="431" y="432" type="curve" smooth="yes"/>
			<point x="349" y="432"/>
			<point x="289" y="372"/>
			<point x="289" y="248" type="curve" smooth="yes"/>
			<point x="289" y="134"/>
			<point x="339" y="80"/>
		</contour>
	</outline>
</glyph>
<glyph name="B" format="2">
	<advance width="638"/>
	<unicode hex="0042"/>
	<anchor x="332" y="0" name="bottom"/>
	<anchor x="332" y="640" name="top"/>
	<outline>
		<contour>
			<point x="190" y="0" type="line"/>
			<point x="370" y="0" type="line" smooth="yes"/>
			<point x="528" y="0"/>
			<point x="584" y="99"/>
			<point x="584" y="185" type="curve" smooth="yes"/>
			<point x="584" y="278"/>
			<point x="521" y="356"/>
			<point x="404" y="361" type="curve"/>
			<point x="404" y="363" type="line"/>
			<point x="506" y="369"/>
			<point x="550" y="455"/>
			<point x="550" y="526" type="curve" smooth="yes"/>
			<point x="550" y="598"/>
			<point x="502" y="692"/>
			<point x="358" y="692" type="curve" smooth="yes"/>
			<point x="190" y="692" type="line"/>
			<point x="190" y="680" type="line" name="🧨"/>
			<point x="318" y="680" type="line" smooth="yes"/>
			<point x="431" y="680"/>
			<point x="495" y="624"/>
			<point x="495" y="517" type="curve" smooth="yes"/>
			<point x="495" y="416"/>
			<point x="438" y="366"/>
			<point x="339" y="366" type="curve" smooth="yes"/>
			<point x="188" y="366" type="line"/>
			<point x="188" y="354" type="line"/>
			<point x="354" y="354" type="line" smooth="yes"/>
			<point x="462" y="354"/>
			<point x="529" y="286"/>
			<point x="529" y="179" type="curve" smooth="yes"/>
			<point x="529" y="81"/>
			<point x="472" y="12"/>
			<point x="350" y="12" type="curve" smooth="yes"/>
			<point x="190" y="12" type="line" name="🧨"/>
		</contour>
		<contour>
			<point x="150" y="0" type="line" name="_corner01"/>
			<point x="200" y="0" type="line" name="🔥"/>
			<point x="200" y="692" type="line" name="🔥"/>
			<point x="150" y="692" type="line" name="_corner00"/>
		</contour>
	</outline>
</glyph>
<glyph name="E" format="2">
	<advance width="622"/>
	<unicode hex="0045"/>
	<anchor x="350" y="0" name="bottom"/>
	<anchor x="517" y="11" name="ogonek"/>
	<anchor x="350" y="640" name="top"/>
	<anchor x="65" y="640" name="topleft"/>
	<outline>
		<contour>
			<point x="180" y="0" type="line"/>
			<point x="552" y="0" type="line"/>
			<point x="582" y="215" type="line"/>
			<point x="570" y="215" type="line"/>
			<point x="527" y="48"/>
			<point x="461" y="12"/>
			<point x="386" y="12" type="curve" smooth="yes"/>
			<point x="180" y="12" type="line" name="🧨"/>
		</contour>
		<contour>
			<point x="150" y="0" type="line" name="_corner01"/>
			<point x="200" y="0" type="line" name="🔥"/>
			<point x="200" y="692" type="line"/>
			<point x="150" y="692" type="line" name="_corner00"/>
		</contour>
		<contour>
			<point x="431" y="230" type="curve"/>
			<point x="441" y="230" type="line"/>
			<point x="441" y="482" type="line"/>
			<point x="431" y="482" type="line"/>
			<point x="427" y="401"/>
			<point x="412" y="360"/>
			<point x="342" y="360" type="curve" smooth="yes"/>
			<point x="198" y="360" type="line"/>
			<point x="198" y="348" type="line"/>
			<point x="342" y="348" type="line" smooth="yes"/>
			<point x="412" y="348"/>
			<point x="428" y="297"/>
		</contour>
		<contour>
			<point x="560" y="487" type="curve"/>
			<point x="572" y="487" type="line"/>
			<point x="542" y="692" type="line"/>
			<point x="180" y="692" type="line" name="🔥"/>
			<point x="180" y="680" type="line" name="🧨"/>
			<point x="376" y="680" type="line" smooth="yes"/>
			<point x="505" y="680"/>
			<point x="539" y="574"/>
		</contour>
	</outline>
</glyph>
<glyph name="F" format="2">
	<advance width="579"/>
	<unicode hex="0046"/>
	<anchor x="292" y="0" name="bottom"/>
	<anchor x="292" y="640" name="top"/>
	<outline>
		<contour>
			<point x="150" y="0" type="line" name="_corner02"/>
			<point x="200" y="0" type="line" name="_corner00"/>
			<point x="200" y="692" type="line"/>
			<point x="150" y="692" type="line" name="_corner01"/>
		</contour>
		<contour>
			<point x="405" y="219" type="curve"/>
			<point x="415" y="219" type="line"/>
			<point x="415" y="471" type="line"/>
			<point x="405" y="471" type="line"/>
			<point x="398" y="380"/>
			<point x="384" y="349"/>
			<point x="316" y="349" type="curve" smooth="yes"/>
			<point x="198" y="349" type="line"/>
			<point x="198" y="337" type="line"/>
			<point x="316" y="337" type="line" smooth="yes"/>
			<point x="384" y="337"/>
			<point x="399" y="302"/>
		</contour>
		<contour>
			<point x="529" y="491" type="curve"/>
			<point x="539" y="491" type="line"/>
			<point x="512" y="692" type="line"/>
			<point x="170" y="692" type="line" name="🔥"/>
			<point x="170" y="680" type="line" name="🧨"/>
			<point x="366" y="680" type="line" smooth="yes"/>
			<point x="482" y="680"/>
			<point x="510" y="578"/>
		</contour>
	</outline>
</glyph>
<glyph name="K" format="2">
	<advance width="689"/>
	<unicode hex="004B"/>
	<anchor x="362" y="0" name="bottom"/>
	<anchor x="352" y="640" name="top"/>
	<outline>
		<contour>
			<point x="150" y="0" type="line" name="_corner03"/>
			<point x="200" y="0" type="line" name="_corner00"/>
			<point x="200" y="692" type="line" name="_corner01"/>
			<point x="150" y="692" type="line" name="_corner02"/>
		</contour>
		<contour>
			<point x="554" y="0" type="line"/>
			<point x="656" y="0" type="line"/>
			<point x="656" y="12" type="line"/>
			<point x="620" y="19"/>
			<point x="588" y="47"/>
			<point x="562" y="82" type="curve" smooth="yes"/>
			<point x="315" y="418" type="line"/>
			<point x="280" y="375" type="line"/>
		</contour>
		<contour>
			<point x="185" y="251" type="line"/>
			<point x="460" y="581" type="line" smooth="yes"/>
			<point x="528" y="663"/>
			<point x="580" y="680"/>
			<point x="640" y="680" type="curve"/>
			<point x="640" y="692" type="line"/>
			<point x="417" y="692" type="line"/>
			<point x="417" y="680" type="line"/>
			<point x="454" y="680"/>
			<point x="484" y="672"/>
			<point x="484" y="650" type="curve" smooth="yes"/>
			<point x="484" y="635"/>
			<point x="476" y="622"/>
			<point x="444" y="583" type="curve" smooth="yes"/>
			<point x="185" y="274" type="line"/>
		</contour>
	</outline>
</glyph>
<glyph name="L" format="2">
	<advance width="583"/>
	<unicode hex="004C"/>
	<anchor x="301" y="0" name="bottom"/>
	<anchor x="176" y="344" name="center"/>
	<anchor x="479" y="345" name="dot"/>
	<anchor x="175" y="640" name="top"/>
	<anchor x="288" y="692" name="topright"/>
	<outline>
		<contour>
			<point x="150" y="0" type="line" name="_corner02"/>
			<point x="200" y="0" type="line"/>
			<point x="200" y="692" type="line" name="_corner00"/>
			<point x="150" y="692" type="line" name="_corner01"/>
		</contour>
		<contour>
			<point x="170" y="0" type="line" name="🔥"/>
			<point x="531" y="0" type="line"/>
			<point x="562" y="214" type="line"/>
			<point x="550" y="214" type="line"/>
			<point x="511" y="47"/>
			<point x="455" y="12"/>
			<point x="377" y="12" type="curve" smooth="yes"/>
			<point x="170" y="12" type="line" name="🧨"/>
		</contour>
	</outline>
</glyph>
<glyph name="M" format="2">
	<advance width="942"/>
	<unicode hex="004D"/>
	<anchor x="471" y="0" name="bottom"/>
	<anchor x="471" y="640" name="top"/>
	<outline>
		<contour>
			<point x="450" y="-9" type="line"/>
			<point x="474" y="0" type="line"/>
			<point x="716" y="650" type="line"/>
			<point x="718" y="650" type="line"/>
			<point x="760" y="105" type="line" smooth="yes"/>
			<point x="765" y="38"/>
			<point x="719" y="19"/>
			<point x="654" y="12" type="curve"/>
			<point x="654" y="0" type="line"/>
			<point x="912" y="0" type="line"/>
			<point x="912" y="12" type="line"/>
			<point x="858" y="16"/>
			<point x="822" y="37"/>
			<point x="816" y="115" type="curve" smooth="yes"/>
			<point x="776" y="601" type="line" smooth="yes"/>
			<point x="772" y="648"/>
			<point x="787" y="680"/>
			<point x="861" y="680" type="curve"/>
			<point x="861" y="692" type="line"/>
			<point x="715" y="692" type="line"/>
			<point x="481" y="63" type="line"/>
			<point x="478" y="63" type="line"/>
			<point x="215" y="692" type="line"/>
			<point x="92" y="692" type="line"/>
			<point x="92" y="680" type="line"/>
			<point x="163" y="676"/>
			<point x="180" y="638"/>
			<point x="176" y="588" type="curve" smooth="yes"/>
			<point x="138" y="115" type="line" smooth="yes"/>
			<point x="132" y="45"/>
			<point x="112" y="14"/>
			<point x="34" y="12" type="curve"/>
			<point x="34" y="0" type="line"/>
			<point x="280" y="0" type="line"/>
			<point x="280" y="12" type="line"/>
			<point x="174" y="12"/>
			<point x="149" y="31"/>
			<point x="154" y="105" type="curve" smooth="yes"/>
			<point x="191" y="605" type="line"/>
			<point x="193" y="605" type="line"/>
		</contour>
	</outline>
</glyph>
<glyph name="O" format="2">
	<advance width="778"/>
	<unicode hex="004F"/>
	<anchor x="389" y="0" name="bottom"/>
	<anchor x="389" y="320" name="center"/>
	<anchor x="692" y="10" name="ogonek"/>
	<anchor x="343" y="0" name="tail"/>
	<anchor x="389" y="640" name="top"/>
	<anchor x="30" y="640" name="topleft"/>
	<anchor x="588" y="640" name="topright"/>
	<outline>
		<contour>
			<point x="393" y="-12" type="curve" smooth="yes"/>
			<point x="587" y="-12"/>
			<point x="724" y="135"/>
			<point x="724" y="341" type="curve" smooth="yes"/>
			<point x="724" y="546"/>
			<point x="587" y="704"/>
			<point x="385" y="704" type="curve" smooth="yes"/>
			<point x="191" y="704"/>
			<point x="54" y="557"/>
			<point x="54" y="352" type="curve" smooth="yes"/>
			<point x="54" y="147"/>
			<point x="191" y="-12"/>
		</contour>
		<contour>
			<point x="399" y="0" type="curve" smooth="yes"/>
			<point x="215" y="0"/>
			<point x="109" y="174"/>
			<point x="109" y="362" type="curve" smooth="yes"/>
			<point x="109" y="550"/>
			<point x="214" y="692"/>
			<point x="379" y="692" type="curve" smooth="yes"/>
			<point x="562" y="692"/>
			<point x="669" y="517"/>
			<point x="669" y="328" type="curve" smooth="yes"/>
			<point x="669" y="142"/>
			<point x="565" y="0"/>
		</contour>
	</outline>
</glyph>
<glyph name="R" format="2">
	<advance width="668"/>
	<unicode hex="0052"/>
	<anchor x="382" y="0" name="bottom"/>
	<anchor x="332" y="640" name="top"/>
	<outline>
		<contour>
			<point x="562" y="0" type="curve"/>
			<point x="653" y="0" type="line"/>
			<point x="653" y="12" type="line"/>
			<point x="556" y="36"/>
			<point x="544" y="340"/>
			<point x="354" y="334" type="curve"/>
			<point x="354" y="336" type="line"/>
			<point x="474" y="347"/>
			<point x="568" y="405"/>
			<point x="568" y="517" type="curve" smooth="yes"/>
			<point x="568" y="608"/>
			<point x="506" y="692"/>
			<point x="351" y="692" type="curve" smooth="yes"/>
			<point x="170" y="692" type="line"/>
			<point x="170" y="680" type="line" name="🧨"/>
			<point x="325" y="680" type="line" smooth="yes"/>
			<point x="454" y="680"/>
			<point x="513" y="602"/>
			<point x="513" y="508" type="curve" smooth="yes"/>
			<point x="513" y="414"/>
			<point x="453" y="345"/>
			<point x="316" y="345" type="curve" smooth="yes"/>
			<point x="178" y="345" type="line"/>
			<point x="178" y="333" type="line"/>
			<point x="259" y="333" type="line" smooth="yes"/>
			<point x="449" y="333"/>
			<point x="454" y="224"/>
		</contour>
		<contour>
			<point x="150" y="0" type="line" name="_corner01"/>
			<point x="200" y="0" type="line" name="_corner02"/>
			<point x="200" y="692" type="line" name="🔥"/>
			<point x="150" y="692" type="line" name="_corner00"/>
		</contour>
	</outline>
</glyph>
<glyph name="T" format="2">
	<advance width="632"/>
	<unicode hex="0054"/>
	<anchor x="316" y="0" name="bottom"/>
	<anchor x="316" y="320" name="center"/>
	<anchor x="316" y="640" name="top"/>
	<outline>
		<contour>
			<point x="291" y="0" type="line" name="_corner00"/>
			<point x="341" y="0" type="line" name="_corner01"/>
			<point x="341" y="690" type="line" name="🧨"/>
			<point x="291" y="690" type="line" name="🧨"/>
		</contour>
		<contour>
			<point x="20" y="482" type="line"/>
			<point x="32" y="482" type="line"/>
			<point x="81" y="648"/>
			<point x="98" y="678"/>
			<point x="155" y="678" type="curve" smooth="yes"/>
			<point x="477" y="678" type="line" smooth="yes"/>
			<point x="534" y="678"/>
			<point x="551" y="648"/>
			<point x="600" y="482" type="curve"/>
			<point x="612" y="482" type="line"/>
			<point x="591" y="712" type="line"/>
			<point x="584" y="712" type="line"/>
			<point x="564" y="695"/>
			<point x="557" y="692"/>
			<point x="537" y="692" type="curve" smooth="yes"/>
			<point x="95" y="692" type="line" smooth="yes"/>
			<point x="76" y="692"/>
			<point x="67" y="696"/>
			<point x="48" y="712" type="curve"/>
			<point x="41" y="712" type="line"/>
		</contour>
	</outline>
</glyph>
<glyph name="U" format="2">
	<advance width="757"/>
	<unicode hex="0055"/>
	<anchor x="384" y="0" name="bottom"/>
	<anchor x="506" y="11" name="ogonek"/>
	<anchor x="395" y="640" name="top"/>
	<anchor x="643" y="692" name="topright"/>
	<outline>
		<contour>
			<point x="379" y="-12" type="curve" smooth="yes"/>
			<point x="562" y="-12"/>
			<point x="622" y="118"/>
			<point x="622" y="235" type="curve" smooth="yes"/>
			<point x="622" y="692" type="line" name="_corner03"/>
			<point x="608" y="692" type="line" name="_corner02"/>
			<point x="608" y="245" type="line" smooth="yes"/>
			<point x="608" y="100"/>
			<point x="536" y="10"/>
			<point x="397" y="10" type="curve" smooth="yes"/>
			<point x="277" y="10"/>
			<point x="185" y="81"/>
			<point x="185" y="246" type="curve" smooth="yes"/>
			<point x="185" y="692" type="line" name="_corner01"/>
			<point x="135" y="692" type="line" name="_corner00"/>
			<point x="135" y="231" type="line" smooth="yes"/>
			<point x="135" y="67"/>
			<point x="253" y="-12"/>
		</contour>
	</outline>
</glyph>
<glyph name="Z" format="2">
	<advance width="572"/>
	<unicode hex="005A"/>
	<anchor x="302" y="0" name="bottom"/>
	<anchor x="302" y="320" name="center"/>
	<anchor x="302" y="640" name="top"/>
	<outline>
		<contour>
			<point x="41" y="0" type="line"/>
			<point x="508" y="0" type="line"/>
			<point x="532" y="210" type="line"/>
			<point x="520" y="210" type="line"/>
			<point x="483" y="39"/>
			<point x="440" y="12"/>
			<point x="321" y="12" type="curve" smooth="yes"/>
			<point x="100" y="12" type="line"/>
			<point x="105" y="5" type="line"/>
			<point x="530" y="690" type="line"/>
			<point x="529" y="692" type="line"/>
			<point x="66" y="692" type="line"/>
			<point x="46" y="482" type="line"/>
			<point x="58" y="482" type="line"/>
			<point x="100" y="651"/>
			<point x="141" y="680"/>
			<point x="238" y="680" type="curve" smooth="yes"/>
			<point x="472" y="680" type="line"/>
			<point x="468" y="685" type="line"/>
			<point x="40" y="2" type="line"/>
		</contour>
	</outline>
</glyph>
<glyph name="bracketleft" format="2">
	<advance width="250"/>
	<unicode hex="005B"/>
	<outline>
		<contour>
			<point x="80" y="-180" type="line"/>
			<point x="240" y="-180" type="line"/>
			<point x="240" y="-168" type="line"/>
			<point x="195" y="-168" type="line" smooth="yes"/>
			<point x="147" y="-168"/>
			<point x="130" y="-137"/>
			<point x="130" y="-105" type="curve" smooth="yes"/>
			<point x="130" y="684" type="line" smooth="yes"/>
			<point x="130" y="727"/>
			<point x="159" y="748"/>
			<point x="195" y="748" type="curve" smooth="yes"/>
			<point x="240" y="748" type="line"/>
			<point x="240" y="760" type="line"/>
			<point x="80" y="760" type="line"/>
		</contour>
	</outline>
</glyph>
<glyph name="asciicircum" format="2">
	<advance width="540"/>
	<unicode hex="005E"/>
	<outline>
		<contour>
			<point x="88" y="244" type="line"/>
			<point x="120" y="244" type="line"/>
			<point x="275" y="622" type="line"/>
			<point x="265" y="622" type="line"/>
			<point x="420" y="244" type="line"/>
			<point x="452" y="244" type="line"/>
			<point x="283" y="645" type="line"/>
			<point x="257" y="645" type="line"/>
		</contour>
	</outline>
</glyph>
<glyph name="b" format="2">
	<advance width="541"/>
	<unicode hex="0062"/>
	<guideline x="-111" y="553" angle="0"/>
	<anchor x="261" y="0" name="bottom"/>
	<anchor x="261" y="800" name="top"/>
	<outline>
		<contour>
			<point x="267" y="-12" type="curve" smooth="yes"/>
			<point x="388" y="-12"/>
			<point x="497" y="73"/>
			<point x="497" y="252" type="curve" smooth="yes"/>
			<point x="497" y="399"/>
			<point x="424" y="490"/>
			<point x="322" y="490" type="curve" smooth="yes"/>
			<point x="242" y="490"/>
			<point x="167" y="437"/>
			<point x="141" y="369" type="curve"/>
			<point x="145" y="373" type="line"/>
			<point x="145" y="730" type="line"/>
			<point x="135" y="730" type="line"/>
			<point x="20" y="682" type="line"/>
			<point x="20" y="672" type="line"/>
			<point x="74" y="687"/>
			<point x="100" y="668"/>
			<point x="100" y="622" type="curve" smooth="yes"/>
			<point x="100" y="49" type="line"/>
			<point x="147" y="7"/>
			<point x="210" y="-12"/>
		</contour>
		<contour>
			<point x="275" y="3" type="curve" smooth="yes"/>
			<point x="217" y="3"/>
			<point x="167" y="31"/>
			<point x="145" y="60" type="curve"/>
			<point x="145" y="356" type="line"/>
			<point x="178" y="419"/>
			<point x="235" y="451"/>
			<point x="297" y="451" type="curve" smooth="yes"/>
			<point x="389" y="451"/>
			<point x="449" y="381"/>
			<point x="449" y="243" type="curve" smooth="yes"/>
			<point x="449" y="93"/>
			<point x="378" y="3"/>
		</contour>
	</outline>
</glyph>
<glyph name="d" format="2">
	<advance width="536"/>
	<unicode hex="0064"/>
	<anchor x="286" y="0" name="bottom"/>
	<anchor x="214" y="567" name="center"/>
	<anchor x="286" y="800" name="top"/>
	<anchor x="466" y="730" name="topright"/>
	<outline>
		<contour>
			<point x="226" y="-11" type="curve" smooth="yes"/>
			<point x="309" y="-11"/>
			<point x="369" y="40"/>
			<point x="406" y="108" type="curve"/>
			<point x="394" y="96" type="line"/>
			<point x="428" y="-12" type="line"/>
			<point x="516" y="37" type="line"/>
			<point x="516" y="47" type="line"/>
			<point x="450" y="27"/>
			<point x="441" y="83"/>
			<point x="441" y="132" type="curve" smooth="yes"/>
			<point x="441" y="730" type="line"/>
			<point x="431" y="730" type="line"/>
			<point x="316" y="682" type="line"/>
			<point x="316" y="672" type="line"/>
			<point x="370" y="687"/>
			<point x="396" y="668"/>
			<point x="396" y="617" type="curve" smooth="yes"/>
			<point x="396" y="465" type="line"/>
			<point x="366" y="482"/>
			<point x="324" y="490"/>
			<point x="289" y="490" type="curve" smooth="yes"/>
			<point x="161" y="490"/>
			<point x="44" y="386"/>
			<point x="44" y="214" type="curve" smooth="yes"/>
			<point x="44" y="77"/>
			<point x="118" y="-11"/>
		</contour>
		<contour>
			<point x="245" y="23" type="curve" smooth="yes"/>
			<point x="153" y="23"/>
			<point x="89" y="91"/>
			<point x="89" y="227" type="curve" smooth="yes"/>
			<point x="89" y="386"/>
			<point x="177" y="475"/>
			<point x="281" y="475" type="curve" smooth="yes"/>
			<point x="331" y="475"/>
			<point x="374" y="456"/>
			<point x="396" y="423" type="curve"/>
			<point x="396" y="119" type="line"/>
			<point x="360" y="53"/>
			<point x="307" y="23"/>
		</contour>
	</outline>
</glyph>
<glyph name="e" format="2">
	<advance width="493"/>
	<unicode hex="0065"/>
	<anchor x="249" y="0" name="bottom"/>
	<anchor x="380" y="10" name="ogonek"/>
	<anchor x="263" y="478" name="top"/>
	<outline>
		<contour>
			<point x="259" y="-12" type="curve" smooth="yes"/>
			<point x="344" y="-12"/>
			<point x="414" y="37"/>
			<point x="457" y="133" type="curve"/>
			<point x="449" y="138" type="line"/>
			<point x="419" y="72"/>
			<point x="363" y="25"/>
			<point x="279" y="25" type="curve" smooth="yes"/>
			<point x="164" y="25"/>
			<point x="92" y="113"/>
			<point x="92" y="259" type="curve" smooth="yes"/>
			<point x="92" y="404"/>
			<point x="160" y="476"/>
			<point x="254" y="476" type="curve" smooth="yes"/>
			<point x="358" y="476"/>
			<point x="407" y="388"/>
			<point x="407" y="282" type="curve"/>
			<point x="428" y="292" type="line"/>
			<point x="80" y="292" type="line"/>
			<point x="80" y="277" type="line"/>
			<point x="453" y="277" type="line"/>
			<point x="454" y="416"/>
			<point x="370" y="490"/>
			<point x="267" y="490" type="curve" smooth="yes"/>
			<point x="148" y="490"/>
			<point x="44" y="394"/>
			<point x="44" y="236" type="curve" smooth="yes"/>
			<point x="44" y="86"/>
			<point x="138" y="-12"/>
		</contour>
	</outline>
</glyph>
<glyph name="f" format="2">
	<advance width="326"/>
	<unicode hex="0066"/>
	<anchor x="160" y="0" name="bottom"/>
	<anchor x="160" y="800" name="top"/>
	<outline>
		<contour>
			<point x="107" y="0" type="line" name="_corner00"/>
			<point x="152" y="0" type="line" name="_corner01"/>
			<point x="152" y="478" type="line" name="🧨"/>
			<point x="133" y="498"/>
			<point x="122" y="534"/>
			<point x="122" y="572" type="curve" smooth="yes"/>
			<point x="122" y="641"/>
			<point x="161" y="688"/>
			<point x="222" y="688" type="curve" smooth="yes"/>
			<point x="269" y="688"/>
			<point x="297" y="659"/>
			<point x="305" y="624" type="curve"/>
			<point x="315" y="624" type="line"/>
			<point x="315" y="717" type="line"/>
			<point x="300" y="723"/>
			<point x="279" y="730"/>
			<point x="248" y="730" type="curve" smooth="yes"/>
			<point x="181" y="730"/>
			<point x="107" y="676"/>
			<point x="107" y="553" type="curve" smooth="yes"/>
		</contour>
		<contour>
			<point x="37" y="457" type="line"/>
			<point x="301" y="457" type="line"/>
			<point x="301" y="478" type="line"/>
			<point x="107" y="478" type="line" name="🧨"/>
			<point x="37" y="467" type="line"/>
		</contour>
	</outline>
</glyph>
<glyph name="h" format="2">
	<advance width="556"/>
	<unicode hex="0068"/>
	<anchor x="292" y="0" name="bottom"/>
	<anchor x="-15" y="572" name="center"/>
	<anchor x="142" y="650" name="top"/>
	<outline>
		<contour>
			<point x="107" y="0" type="line" name="_corner00"/>
			<point x="152" y="0" type="line" name="_corner01"/>
			<point x="152" y="360" type="line"/>
			<point x="172" y="398"/>
			<point x="222" y="448"/>
			<point x="299" y="448" type="curve" smooth="yes"/>
			<point x="369" y="448"/>
			<point x="407" y="407"/>
			<point x="407" y="321" type="curve" smooth="yes"/>
			<point x="407" y="0" type="line" name="_corner02"/>
			<point x="452" y="0" type="line" name="_corner03"/>
			<point x="452" y="342" type="line" smooth="yes"/>
			<point x="452" y="432"/>
			<point x="402" y="490"/>
			<point x="319" y="490" type="curve" smooth="yes"/>
			<point x="232" y="490"/>
			<point x="172" y="424"/>
			<point x="145" y="371" type="curve"/>
			<point x="152" y="373" type="line"/>
			<point x="152" y="730" type="line"/>
			<point x="142" y="730" type="line"/>
			<point x="27" y="682" type="line"/>
			<point x="27" y="672" type="line"/>
			<point x="81" y="687"/>
			<point x="107" y="668"/>
			<point x="107" y="622" type="curve" smooth="yes"/>
		</contour>
	</outline>
</glyph>
<glyph name="m" format="2">
	<advance width="836"/>
	<unicode hex="006D"/>
	<anchor x="432" y="0" name="bottom"/>
	<anchor x="432" y="477" name="top"/>
	<outline>
		<contour>
			<point x="107" y="0" type="line" name="_corner03"/>
			<point x="152" y="0" type="line" name="_corner00"/>
			<point x="152" y="374" type="line"/>
			<point x="177" y="410"/>
			<point x="220" y="450"/>
			<point x="290" y="450" type="curve" smooth="yes"/>
			<point x="361" y="450"/>
			<point x="397" y="414"/>
			<point x="397" y="321" type="curve" smooth="yes"/>
			<point x="397" y="0" type="line" name="_corner01"/>
			<point x="442" y="0" type="line" name="_corner02"/>
			<point x="442" y="342" type="line" smooth="yes"/>
			<point x="442" y="431"/>
			<point x="394" y="490"/>
			<point x="311" y="490" type="curve" smooth="yes"/>
			<point x="227" y="490"/>
			<point x="166" y="429"/>
			<point x="136" y="369" type="curve"/>
			<point x="151" y="381" type="line"/>
			<point x="140" y="484" type="line"/>
			<point x="27" y="438" type="line"/>
			<point x="27" y="428" type="line"/>
			<point x="79" y="442"/>
			<point x="107" y="421"/>
			<point x="107" y="370" type="curve" smooth="yes"/>
		</contour>
		<contour>
			<point x="687" y="0" type="line" name="_corner04"/>
			<point x="732" y="0" type="line" name="_corner05"/>
			<point x="732" y="342" type="line" smooth="yes"/>
			<point x="732" y="432"/>
			<point x="682" y="490"/>
			<point x="599" y="490" type="curve" smooth="yes"/>
			<point x="523" y="490"/>
			<point x="458" y="436"/>
			<point x="428" y="373" type="curve"/>
			<point x="433" y="363" type="line"/>
			<point x="458" y="403"/>
			<point x="504" y="450"/>
			<point x="577" y="450" type="curve" smooth="yes"/>
			<point x="649" y="450"/>
			<point x="687" y="414"/>
			<point x="687" y="321" type="curve" smooth="yes"/>
		</contour>
	</outline>
</glyph>
<glyph name="o" format="2">
	<advance width="537"/>
	<unicode hex="006F"/>
	<guideline x="268" y="553" angle="90"/>
	<anchor x="269" y="0" name="bottom"/>
	<anchor x="269" y="239" name="center"/>
	<anchor x="483" y="10" name="ogonek"/>
	<anchor x="269" y="478" name="top"/>
	<anchor x="457" y="478" name="topright"/>
	<outline>
		<contour>
			<point x="270" y="-12" type="curve" smooth="yes"/>
			<point x="404" y="-12"/>
			<point x="493" y="91"/>
			<point x="493" y="241" type="curve" smooth="yes"/>
			<point x="493" y="390"/>
			<point x="404" y="490"/>
			<point x="270" y="490" type="curve" smooth="yes"/>
			<point x="136" y="490"/>
			<point x="44" y="391"/>
			<point x="44" y="241" type="curve" smooth="yes"/>
			<point x="44" y="90"/>
			<point x="136" y="-12"/>
		</contour>
		<contour>
			<point x="269" y="3" type="curve" smooth="yes"/>
			<point x="162" y="3"/>
			<point x="92" y="93"/>
			<point x="92" y="239" type="curve" smooth="yes"/>
			<point x="92" y="386"/>
			<point x="162" y="475"/>
			<point x="270" y="475" type="curve" smooth="yes"/>
			<point x="377" y="475"/>
			<point x="445" y="386"/>
			<point x="445" y="239" type="curve" smooth="yes"/>
			<point x="445" y="93"/>
			<point x="377" y="3"/>
		</contour>
	</outline>
</glyph>
<glyph name="q" format="2">
	<advance width="542"/>
	<unicode hex="0071"/>
	<anchor x="278" y="0" name="bottom"/>
	<anchor x="278" y="477" name="top"/>
	<outline>
		<contour>
			<point x="396" y="-208" type="line" name="_corner01"/>
			<point x="441" y="-208" type="line" name="_corner00"/>
			<point x="441" y="485" type="line" name="❌"/>
			<point x="432" y="489" type="line"/>
			<point x="412" y="471" type="line"/>
			<point x="375" y="486" name="❌"/>
			<point x="333" y="490"/>
			<point x="305" y="490" type="curve" smooth="yes"/>
			<point x="163" y="490"/>
			<point x="44" y="387"/>
			<point x="44" y="212" type="curve" smooth="yes"/>
			<point x="44" y="67"/>
			<point x="125" y="-12"/>
			<point x="224" y="-12" type="curve" smooth="yes"/>
			<point x="296" y="-12"/>
			<point x="353" y="28"/>
			<point x="394" y="89" type="curve"/>
			<point x="396" y="89" type="line"/>
		</contour>
		<contour>
			<point x="244" y="19" type="curve" smooth="yes"/>
			<point x="156" y="19"/>
			<point x="89" y="85"/>
			<point x="89" y="227" type="curve" smooth="yes"/>
			<point x="89" y="378"/>
			<point x="165" y="475"/>
			<point x="294" y="475" type="curve" smooth="yes"/>
			<point x="335" y="475"/>
			<point x="368" y="465"/>
			<point x="396" y="444" type="curve"/>
			<point x="396" y="116" type="line"/>
			<point x="360" y="52"/>
			<point x="305" y="19"/>
		</contour>
	</outline>
</glyph>
<glyph name="r" format="2">
	<advance width="357"/>
	<unicode hex="0072"/>
	<anchor x="130" y="0" name="bottom"/>
	<anchor x="216" y="478" name="top"/>
	<outline>
		<contour>
			<point x="107" y="0" type="line" name="_corner00"/>
			<point x="152" y="0" type="line" name="_corner01"/>
			<point x="152" y="296" type="line"/>
			<point x="152" y="397"/>
			<point x="208" y="440"/>
			<point x="256" y="440" type="curve" smooth="yes"/>
			<point x="297" y="440"/>
			<point x="323" y="416"/>
			<point x="327" y="390" type="curve"/>
			<point x="337" y="390" type="line"/>
			<point x="337" y="474" type="line"/>
			<point x="328" y="481"/>
			<point x="307" y="490"/>
			<point x="280" y="490" type="curve" smooth="yes"/>
			<point x="227" y="490"/>
			<point x="169" y="437"/>
			<point x="144" y="350" type="curve"/>
			<point x="151" y="364" type="line"/>
			<point x="134" y="489" type="line"/>
			<point x="27" y="442" type="line"/>
			<point x="27" y="432" type="line"/>
			<point x="86" y="432"/>
			<point x="107" y="418"/>
			<point x="107" y="362" type="curve" smooth="yes"/>
		</contour>
	</outline>
</glyph>
<glyph name="v" format="2">
	<advance width="495"/>
	<unicode hex="0076"/>
	<anchor x="248" y="0" name="bottom"/>
	<anchor x="252" y="478" name="top"/>
	<outline>
		<contour>
			<point x="241" y="-11" type="line"/>
			<point x="256" y="0" type="line"/>
			<point x="412" y="390" type="line" smooth="yes"/>
			<point x="431" y="437"/>
			<point x="450" y="461"/>
			<point x="490" y="468" type="curve"/>
			<point x="490" y="478" type="line"/>
			<point x="327" y="478" type="line"/>
			<point x="327" y="468" type="line"/>
			<point x="389" y="465"/>
			<point x="424" y="457"/>
			<point x="399" y="393" type="curve" smooth="yes"/>
			<point x="259" y="37" type="line"/>
			<point x="264" y="41" type="line"/>
			<point x="136" y="388" type="line" smooth="yes"/>
			<point x="115" y="446"/>
			<point x="133" y="468"/>
			<point x="202" y="468" type="curve"/>
			<point x="202" y="478" type="line"/>
			<point x="5" y="478" type="line"/>
			<point x="5" y="468" type="line"/>
			<point x="36" y="468"/>
			<point x="59" y="461"/>
			<point x="76" y="418" type="curve" smooth="yes"/>
		</contour>
	</outline>
</glyph>
<glyph name="w" format="2">
	<advance width="741"/>
	<unicode hex="0077"/>
	<anchor x="369" y="0" name="bottom"/>
	<anchor x="369" y="478" name="top"/>
	<outline>
		<contour>
			<point x="215" y="-8" type="line"/>
			<point x="231" y="3" type="line" name="❌"/>
			<point x="374" y="439" type="line"/>
			<point x="363" y="412" type="line"/>
			<point x="513" y="-8" type="line"/>
			<point x="529" y="3" type="line" name="❌"/>
			<point x="657" y="401" type="line" smooth="yes"/>
			<point x="674" y="453"/>
			<point x="714" y="468"/>
			<point x="736" y="468" type="curve"/>
			<point x="736" y="478" type="line"/>
			<point x="561" y="478" type="line"/>
			<point x="561" y="468" type="line"/>
			<point x="630" y="468"/>
			<point x="659" y="448"/>
			<point x="641" y="393" type="curve" smooth="yes"/>
			<point x="523" y="28" type="line"/>
			<point x="535" y="57" type="line"/>
			<point x="389" y="476" type="line"/>
			<point x="384" y="476"/>
			<point x="376" y="474"/>
			<point x="370" y="465" type="curve"/>
			<point x="230" y="43" type="line"/>
			<point x="240" y="50" type="line"/>
			<point x="127" y="393" type="line" smooth="yes"/>
			<point x="108" y="449"/>
			<point x="124" y="468"/>
			<point x="182" y="468" type="curve"/>
			<point x="182" y="478" type="line"/>
			<point x="5" y="478" type="line"/>
			<point x="5" y="468" type="line"/>
			<point x="34" y="468"/>
			<point x="58" y="454"/>
			<point x="68" y="425" type="curve" smooth="yes"/>
		</contour>
	</outline>
</glyph>
<glyph name="y" format="2">
	<advance width="515"/>
	<unicode hex="0079"/>
	<anchor x="371" y="0" name="bottom"/>
	<anchor x="269" y="478" name="top"/>
	<outline>
		<contour>
			<point x="50" y="-220" type="line"/>
			<point x="136" y="-226" name="❌"/>
			<point x="212" y="-183"/>
			<point x="280" y="3" type="curve" smooth="yes" name="❌"/>
			<point x="422" y="390" type="line" smooth="yes"/>
			<point x="439" y="437"/>
			<point x="482" y="464"/>
			<point x="510" y="468" type="curve"/>
			<point x="510" y="478" type="line"/>
			<point x="320" y="478" type="line"/>
			<point x="320" y="468" type="line"/>
			<point x="378" y="464"/>
			<point x="429" y="449"/>
			<point x="408" y="393" type="curve" smooth="yes"/>
			<point x="271" y="19" type="line"/>
			<point x="277" y="19" type="line"/>
			<point x="137" y="387" type="line" smooth="yes"/>
			<point x="115" y="446"/>
			<point x="138" y="468"/>
			<point x="207" y="468" type="curve"/>
			<point x="207" y="478" type="line"/>
			<point x="5" y="478" type="line"/>
			<point x="5" y="468" type="line"/>
			<point x="36" y="468"/>
			<point x="65" y="447"/>
			<point x="77" y="417" type="curve" smooth="yes"/>
			<point x="254" y="-38" type="line"/>
			<point x="254" y="-29" type="line"/>
			<point x="227" y="-108"/>
			<point x="184" y="-158"/>
			<point x="126" y="-158" type="curve" smooth="yes"/>
			<point x="88" y="-158"/>
			<point x="50" y="-146"/>
			<point x="23" y="-112" type="curve"/>
			<point x="15" y="-117" type="line"/>
		</contour>
	</outline>
</glyph>
<glyph name="z" format="2">
	<advance width="434"/>
	<unicode hex="007A"/>
	<anchor x="229" y="0" name="bottom"/>
	<anchor x="229" y="239" name="center"/>
	<anchor x="229" y="478" name="top"/>
	<outline>
		<contour>
			<point x="44" y="0" type="line"/>
			<point x="379" y="0" type="line"/>
			<point x="391" y="157" type="line"/>
			<point x="381" y="157" type="line"/>
			<point x="362" y="63"/>
			<point x="313" y="10"/>
			<point x="250" y="10" type="curve" smooth="yes"/>
			<point x="83" y="10" type="line"/>
			<point x="88" y="2" type="line"/>
			<point x="393" y="472" type="line"/>
			<point x="390" y="478" type="line"/>
			<point x="61" y="478" type="line"/>
			<point x="44" y="328" type="line"/>
			<point x="54" y="328" type="line"/>
			<point x="73" y="416"/>
			<point x="110" y="468"/>
			<point x="184" y="468" type="curve" smooth="yes"/>
			<point x="347" y="468" type="line"/>
			<point x="343" y="475" type="line"/>
			<point x="41" y="6" type="line"/>
		</contour>
	</outline>
</glyph>
<glyph name="bar" format="2">
	<advance width="200"/>
	<unicode hex="007C"/>
	<outline>
		<contour>
			<point x="85" y="-140" type="line"/>
			<point x="115" y="-140" type="line"/>
			<point x="115" y="730" type="line"/>
			<point x="85" y="730" type="line"/>
		</contour>
	</outline>
</glyph>
<glyph name="currency" format="2">
	<advance width="574"/>
	<unicode hex="00A4"/>
	<outline>
		<contour>
			<point x="288" y="57" type="curve" smooth="yes"/>
			<point x="393" y="57"/>
			<point x="471" y="142"/>
			<point x="471" y="244" type="curve" smooth="yes"/>
			<point x="471" y="346"/>
			<point x="393" y="431"/>
			<point x="288" y="431" type="curve" smooth="yes"/>
			<point x="183" y="431"/>
			<point x="105" y="346"/>
			<point x="105" y="244" type="curve" smooth="yes"/>
			<point x="105" y="141"/>
			<point x="183" y="57"/>
		</contour>
		<contour>
			<point x="91" y="34" type="line"/>
			<point x="166" y="109" type="line"/>
			<point x="147" y="128" type="line"/>
			<point x="72" y="53" type="line"/>
		</contour>
		<contour>
			<point x="483" y="34" type="line"/>
			<point x="502" y="53" type="line"/>
			<point x="427" y="128" type="line"/>
			<point x="408" y="109" type="line"/>
		</contour>
		<contour>
			<point x="288" y="82" type="curve" smooth="yes"/>
			<point x="195" y="82"/>
			<point x="133" y="156"/>
			<point x="133" y="244" type="curve" smooth="yes"/>
			<point x="133" y="331"/>
			<point x="195" y="406"/>
			<point x="288" y="406" type="curve" smooth="yes"/>
			<point x="381" y="406"/>
			<point x="443" y="331"/>
			<point x="443" y="244" type="curve" smooth="yes"/>
			<point x="443" y="156"/>
			<point x="381" y="82"/>
		</contour>
		<contour>
			<point x="147" y="359" type="line"/>
			<point x="166" y="378" type="line"/>
			<point x="91" y="453" type="line"/>
			<point x="72" y="434" type="line"/>
		</contour>
		<contour>
			<point x="427" y="359" type="line"/>
			<point x="502" y="434" type="line"/>
			<point x="483" y="453" type="line"/>
			<point x="408" y="378" type="line"/>
		</contour>
	</outline>
</glyph>
<glyph name="degree" format="2">
	<advance width="397"/>
	<unicode hex="00B0"/>
	<outline>
		<contour>
			<point x="199" y="458" type="curve" smooth="yes"/>
			<point x="271" y="458"/>
			<point x="322" y="512"/>
			<point x="322" y="584" type="curve" smooth="yes"/>
			<point x="322" y="657"/>
			<point x="271" y="711"/>
			<point x="199" y="711" type="curve" smooth="yes"/>
			<point x="128" y="711"/>
			<point x="75" y="657"/>
			<point x="75" y="584" type="curve" smooth="yes"/>
			<point x="75" y="511"/>
			<point x="128" y="458"/>
		</contour>
		<contour>
			<point x="199" y="478" type="curve" smooth="yes"/>
			<point x="143" y="478"/>
			<point x="98" y="516"/>
			<point x="98" y="584" type="curve" smooth="yes"/>
			<point x="98" y="652"/>
			<point x="143" y="690"/>
			<point x="199" y="690" type="curve" smooth="yes"/>
			<point x="255" y="690"/>
			<point x="300" y="652"/>
			<point x="300" y="584" type="curve" smooth="yes"/>
			<point x="300" y="516"/>
			<point x="255" y="478"/>
		</contour>
	</outline>
</glyph>
<glyph name="threesuperior" format="2">
	<advance width="293"/>
	<unicode hex="00B3"/>
	<outline>
		<contour>
			<point x="98" y="532" type="line"/>
			<point x="114" y="544"/>
			<point x="129" y="552"/>
			<point x="151" y="552" type="curve" smooth="yes"/>
			<point x="188" y="552"/>
			<point x="206" y="528"/>
			<point x="206" y="489" type="curve" smooth="yes"/>
			<point x="206" y="428"/>
			<point x="162" y="394"/>
			<point x="26" y="383" type="curve"/>
			<point x="26" y="373" type="line"/>
			<point x="169" y="379"/>
			<point x="252" y="433"/>
			<point x="252" y="503" type="curve" smooth="yes"/>
			<point x="252" y="539"/>
			<point x="228" y="573"/>
			<point x="172" y="573" type="curve" smooth="yes"/>
			<point x="144" y="573"/>
			<point x="122" y="564"/>
			<point x="105" y="544" type="curve"/>
			<point x="118" y="549" type="line"/>
			<point x="250" y="682" type="line"/>
			<point x="248" y="692" type="line"/>
			<point x="45" y="692" type="line"/>
			<point x="23" y="595" type="line"/>
			<point x="33" y="593" type="line"/>
			<point x="45" y="637"/>
			<point x="51" y="652"/>
			<point x="85" y="652" type="curve" smooth="yes"/>
			<point x="213" y="652" type="line"/>
			<point x="212" y="658" type="line"/>
			<point x="93" y="537" type="line"/>
		</contour>
	</outline>
</glyph>
<glyph name="onesuperior" format="2">
	<advance width="333"/>
	<unicode hex="00B9"/>
	<outline>
		<contour>
			<point x="70" y="387" type="line"/>
			<point x="275" y="387" type="line"/>
			<point x="275" y="397" type="line"/>
			<point x="218" y="397"/>
			<point x="195" y="419"/>
			<point x="195" y="460" type="curve" smooth="yes"/>
			<point x="195" y="692" type="line"/>
			<point x="187" y="692" type="line"/>
			<point x="63" y="637" type="line"/>
			<point x="68" y="628" type="line"/>
			<point x="90" y="639"/>
			<point x="106" y="644"/>
			<point x="121" y="644" type="curve" smooth="yes"/>
			<point x="136" y="644"/>
			<point x="150" y="638"/>
			<point x="150" y="602" type="curve" smooth="yes"/>
			<point x="150" y="460" type="line" smooth="yes"/>
			<point x="150" y="419"/>
			<point x="127" y="397"/>
			<point x="70" y="397" type="curve"/>
		</contour>
	</outline>
</glyph>
<glyph name="ordmasculine" format="2">
	<advance width="319"/>
	<unicode hex="00BA"/>
	<outline>
		<contour>
			<point x="161" y="350" type="curve" smooth="yes"/>
			<point x="229" y="350"/>
			<point x="275" y="403"/>
			<point x="275" y="480" type="curve" smooth="yes"/>
			<point x="275" y="561"/>
			<point x="223" y="610"/>
			<point x="160" y="610" type="curve" smooth="yes"/>
			<point x="90" y="610"/>
			<point x="44" y="553"/>
			<point x="44" y="479" type="curve" smooth="yes"/>
			<point x="44" y="402"/>
			<point x="93" y="350"/>
		</contour>
		<contour>
			<point x="166" y="362" type="curve" smooth="yes"/>
			<point x="121" y="362"/>
			<point x="80" y="392"/>
			<point x="80" y="485" type="curve" smooth="yes"/>
			<point x="80" y="560"/>
			<point x="107" y="597"/>
			<point x="158" y="597" type="curve" smooth="yes"/>
			<point x="204" y="597"/>
			<point x="239" y="566"/>
			<point x="239" y="474" type="curve" smooth="yes"/>
			<point x="239" y="397"/>
			<point x="214" y="362"/>
		</contour>
	</outline>
</glyph>
<glyph name="AE" format="2">
	<advance width="905"/>
	<unicode hex="00C6"/>
	<outline>
		<contour>
			<point x="63" y="0" type="line" name="_corner02"/>
			<point x="80" y="0" type="line" name="_corner00"/>
			<point x="460" y="680" type="line"/>
			<point x="659" y="680" type="line" smooth="yes"/>
			<point x="788" y="680"/>
			<point x="822" y="574"/>
			<point x="843" y="487" type="curve"/>
			<point x="855" y="487" type="line"/>
			<point x="825" y="692" type="line"/>
			<point x="452" y="692" type="line" name="_corner01"/>
		</contour>
		<contour>
			<point x="498" y="0" type="line" name="🧨"/>
			<point x="835" y="0" type="line"/>
			<point x="865" y="215" type="line"/>
			<point x="853" y="215" type="line"/>
			<point x="810" y="48"/>
			<point x="744" y="12"/>
			<point x="669" y="12" type="curve" smooth="yes"/>
			<point x="498" y="12" type="line"/>
		</contour>
		<contour>
			<point x="453" y="0" type="line" name="_corner03"/>
			<point x="503" y="0" type="line" name="🧨"/>
			<point x="503" y="692" type="line" name="🧨"/>
			<point x="453" y="692" type="line" name="🧨"/>
		</contour>
		<contour>
			<point x="714" y="230" type="curve"/>
			<point x="724" y="230" type="line"/>
			<point x="724" y="482" type="line"/>
			<point x="714" y="482" type="line"/>
			<point x="708" y="408"/>
			<point x="701" y="360"/>
			<point x="625" y="360" type="curve" smooth="yes"/>
			<point x="273" y="360" type="line"/>
			<point x="265" y="348" type="line"/>
			<point x="625" y="348" type="line" smooth="yes"/>
			<point x="701" y="348"/>
			<point x="709" y="292"/>
		</contour>
	</outline>
</glyph>
<glyph name="Thorn" format="2">
	<advance width="580"/>
	<unicode hex="00DE"/>
	<anchor x="175" y="0" name="bottom"/>
	<anchor x="232" y="11" name="ogonek"/>
	<anchor x="175" y="640" name="top"/>
	<anchor x="15" y="640" name="topleft"/>
	<outline>
		<contour>
			<point x="187" y="168" type="line"/>
			<point x="310" y="168" type="line" smooth="yes"/>
			<point x="478" y="168"/>
			<point x="550" y="267"/>
			<point x="550" y="360" type="curve" smooth="yes"/>
			<point x="550" y="453"/>
			<point x="480" y="552"/>
			<point x="314" y="552" type="curve" smooth="yes"/>
			<point x="190" y="552" type="line"/>
			<point x="190" y="540" type="line"/>
			<point x="290" y="540" type="line" smooth="yes"/>
			<point x="413" y="540"/>
			<point x="495" y="482"/>
			<point x="495" y="360" type="curve" smooth="yes"/>
			<point x="495" y="252"/>
			<point x="430" y="180"/>
			<point x="291" y="180" type="curve" smooth="yes"/>
			<point x="187" y="180" type="line"/>
		</contour>
		<contour>
			<point x="150" y="0" type="line" name="_corner03"/>
			<point x="200" y="0" type="line" name="_corner00"/>
			<point x="200" y="692" type="line" name="_corner01"/>
			<point x="150" y="692" type="line" name="_corner02"/>
		</contour>
	</outline>
</glyph>
<glyph name="germandbls" format="2">
	<advance width="583"/>
	<unicode hex="00DF"/>
	<outline>
		<contour>
			<point x="352" y="-12" type="curve" smooth="yes"/>
			<point x="457" y="-12"/>
			<point x="530" y="53"/>
			<point x="530" y="184" type="curve" smooth="yes"/>
			<point x="530" y="346"/>
			<point x="422" y="398"/>
			<point x="293" y="391" type="curve"/>
			<point x="293" y="387" type="line"/>
			<point x="408" y="379"/>
			<point x="489" y="449"/>
			<point x="489" y="565" type="curve" smooth="yes"/>
			<point x="489" y="661"/>
			<point x="436" y="730"/>
			<point x="313" y="730" type="curve" smooth="yes"/>
			<point x="187" y="730"/>
			<point x="107" y="657"/>
			<point x="107" y="502" type="curve" smooth="yes"/>
			<point x="107" y="0" type="line" name="_corner00"/>
			<point x="152" y="0" type="line"/>
			<point x="152" y="512" type="line" smooth="yes"/>
			<point x="152" y="649"/>
			<point x="203" y="715"/>
			<point x="305" y="715" type="curve" smooth="yes"/>
			<point x="414" y="715"/>
			<point x="441" y="638"/>
			<point x="441" y="560" type="curve" smooth="yes"/>
			<point x="441" y="441"/>
			<point x="378" y="391"/>
			<point x="254" y="391" type="curve"/>
			<point x="254" y="381" type="line"/>
			<point x="397" y="381"/>
			<point x="482" y="348"/>
			<point x="482" y="189" type="curve" smooth="yes"/>
			<point x="482" y="81"/>
			<point x="443" y="13"/>
			<point x="344" y="13" type="curve" smooth="yes"/>
			<point x="296" y="13"/>
			<point x="253" y="30"/>
			<point x="226" y="58" type="curve"/>
			<point x="218" y="51" type="line"/>
			<point x="245" y="20"/>
			<point x="282" y="-12"/>
		</contour>
	</outline>
</glyph>
<glyph name="ae" format="2">
	<advance width="777"/>
	<unicode hex="00E6"/>
	<anchor x="706" y="0" name="bottom"/>
	<anchor x="837" y="10" name="ogonek"/>
	<anchor x="720" y="478" name="top"/>
	<outline>
		<contour>
			<point x="151" y="-12" type="curve" smooth="yes"/>
			<point x="250" y="-12"/>
			<point x="322" y="74"/>
			<point x="367" y="150" type="curve"/>
			<point x="340" y="174" type="line"/>
			<point x="362" y="54"/>
			<point x="446" y="-12"/>
			<point x="545" y="-12" type="curve" smooth="yes"/>
			<point x="628" y="-12"/>
			<point x="698" y="37"/>
			<point x="741" y="133" type="curve"/>
			<point x="733" y="138" type="line"/>
			<point x="704" y="73"/>
			<point x="649" y="23"/>
			<point x="565" y="23" type="curve" smooth="yes"/>
			<point x="449" y="23"/>
			<point x="376" y="118"/>
			<point x="376" y="264" type="curve" smooth="yes"/>
			<point x="376" y="403"/>
			<point x="442" y="476"/>
			<point x="537" y="476" type="curve" smooth="yes"/>
			<point x="641" y="476"/>
			<point x="690" y="389"/>
			<point x="691" y="284" type="curve"/>
			<point x="704" y="292" type="line"/>
			<point x="364" y="292" type="line"/>
			<point x="364" y="277" type="line"/>
			<point x="737" y="277" type="line"/>
			<point x="738" y="416"/>
			<point x="654" y="490"/>
			<point x="551" y="490" type="curve" smooth="yes"/>
			<point x="467" y="490"/>
			<point x="391" y="439"/>
			<point x="356" y="352" type="curve"/>
			<point x="371" y="349" type="line"/>
			<point x="361" y="439"/>
			<point x="299" y="490"/>
			<point x="217" y="490" type="curve" smooth="yes"/>
			<point x="142" y="490"/>
			<point x="62" y="448"/>
			<point x="44" y="343" type="curve"/>
			<point x="54" y="341" type="line"/>
			<point x="80" y="430"/>
			<point x="140" y="459"/>
			<point x="201" y="459" type="curve" smooth="yes"/>
			<point x="280" y="459"/>
			<point x="332" y="408"/>
			<point x="332" y="311" type="curve" smooth="yes"/>
			<point x="332" y="118" type="line"/>
			<point x="308" y="85"/>
			<point x="253" y="20"/>
			<point x="172" y="20" type="curve" smooth="yes"/>
			<point x="125" y="20"/>
			<point x="82" y="40"/>
			<point x="82" y="99" type="curve" smooth="yes"/>
			<point x="82" y="150"/>
			<point x="112" y="205"/>
			<point x="345" y="261" type="curve"/>
			<point x="345" y="275" type="line"/>
			<point x="78" y="223"/>
			<point x="35" y="150"/>
			<point x="35" y="88" type="curve" smooth="yes"/>
			<point x="35" y="22"/>
			<point x="87" y="-12"/>
		</contour>
	</outline>
</glyph>
<glyph name="eogonek" format="2">
	<advance width="493"/>
	<unicode hex="0119"/>
	<anchor x="249" y="0" name="bottom"/>
	<anchor x="380" y="10" name="ogonek"/>
	<anchor x="263" y="478" name="top"/>
	<outline>
		<contour>
			<point x="349" y="7" type="curve"/>
			<point x="349" y="12" type="line"/>
			<point x="250" y="-45"/>
			<point x="219" y="-95"/>
			<point x="219" y="-142" type="curve" smooth="yes"/>
			<point x="219" y="-191"/>
			<point x="250" y="-221"/>
			<point x="306" y="-221" type="curve" smooth="yes"/>
			<point x="358" y="-221"/>
			<point x="391" y="-195"/>
			<point x="420" y="-166" type="curve"/>
			<point x="414" y="-159" type="line"/>
			<point x="377" y="-186"/>
			<point x="355" y="-195"/>
			<point x="324" y="-195" type="curve" smooth="yes"/>
			<point x="281" y="-195"/>
			<point x="263" y="-177"/>
			<point x="263" y="-133" type="curve" smooth="yes"/>
			<point x="263" y="-51"/>
			<point x="326" y="-14"/>
			<point x="370" y="21" type="curve" smooth="yes"/>
			<point x="409" y="52"/>
			<point x="438" y="86"/>
			<point x="457" y="133" type="curve"/>
			<point x="449" y="138" type="line"/>
			<point x="420" y="74"/>
			<point x="365" y="25"/>
			<point x="280" y="25" type="curve" smooth="yes"/>
			<point x="165" y="25"/>
			<point x="92" y="112"/>
			<point x="92" y="260" type="curve" smooth="yes"/>
			<point x="92" y="401"/>
			<point x="157" y="476"/>
			<point x="255" y="476" type="curve" smooth="yes"/>
			<point x="358" y="476"/>
			<point x="407" y="388"/>
			<point x="407" y="282" type="curve"/>
			<point x="428" y="292" type="line"/>
			<point x="80" y="292" type="line"/>
			<point x="80" y="277" type="line"/>
			<point x="453" y="277" type="line"/>
			<point x="454" y="416"/>
			<point x="370" y="490"/>
			<point x="267" y="490" type="curve" smooth="yes"/>
			<point x="148" y="490"/>
			<point x="44" y="394"/>
			<point x="44" y="238" type="curve" smooth="yes"/>
			<point x="44" y="86"/>
			<point x="137" y="-12"/>
			<point x="261" y="-12" type="curve" smooth="yes"/>
			<point x="292" y="-12"/>
			<point x="322" y="-6"/>
		</contour>
	</outline>
</glyph>
<glyph name="oe" format="2">
	<advance width="894"/>
	<unicode hex="0153"/>
	<anchor x="452" y="0" name="bottom"/>
	<anchor x="452" y="478" name="top"/>
	<outline>
		<contour>
			<point x="269" y="-12" type="curve" smooth="yes"/>
			<point x="364" y="-12"/>
			<point x="436" y="41"/>
			<point x="469" y="125" type="curve"/>
			<point x="502" y="39"/>
			<point x="574" y="-12"/>
			<point x="662" y="-12" type="curve" smooth="yes"/>
			<point x="745" y="-12"/>
			<point x="815" y="37"/>
			<point x="858" y="133" type="curve"/>
			<point x="850" y="138" type="line"/>
			<point x="819" y="71"/>
			<point x="759" y="25"/>
			<point x="679" y="25" type="curve" smooth="yes"/>
			<point x="562" y="25"/>
			<point x="493" y="122"/>
			<point x="493" y="264" type="curve" smooth="yes"/>
			<point x="493" y="404"/>
			<point x="561" y="476"/>
			<point x="655" y="476" type="curve" smooth="yes"/>
			<point x="758" y="476"/>
			<point x="807" y="390"/>
			<point x="808" y="286" type="curve"/>
			<point x="815" y="292" type="line"/>
			<point x="481" y="292" type="line"/>
			<point x="481" y="277" type="line"/>
			<point x="854" y="277" type="line"/>
			<point x="855" y="416"/>
			<point x="771" y="490"/>
			<point x="668" y="490" type="curve" smooth="yes"/>
			<point x="583" y="490"/>
			<point x="506" y="439"/>
			<point x="470" y="352" type="curve"/>
			<point x="438" y="438"/>
			<point x="365" y="490"/>
			<point x="269" y="490" type="curve" smooth="yes"/>
			<point x="136" y="490"/>
			<point x="44" y="391"/>
			<point x="44" y="239" type="curve" smooth="yes"/>
			<point x="44" y="91"/>
			<point x="136" y="-12"/>
		</contour>
		<contour>
			<point x="269" y="3" type="curve" smooth="yes"/>
			<point x="162" y="3"/>
			<point x="92" y="93"/>
			<point x="92" y="239" type="curve" smooth="yes"/>
			<point x="92" y="386"/>
			<point x="162" y="475"/>
			<point x="270" y="475" type="curve" smooth="yes"/>
			<point x="378" y="475"/>
			<point x="447" y="386"/>
			<point x="447" y="239" type="curve" smooth="yes"/>
			<point x="447" y="93"/>
			<point x="378" y="3"/>
		</contour>
	</outline>
</glyph>
<glyph name="Uhorn" format="2">
	<advance width="727"/>
	<unicode hex="01AF"/>
	<anchor x="384" y="0" name="bottom"/>
	<anchor x="486" y="11" name="ogonek"/>
	<anchor x="395" y="640" name="top"/>
	<anchor x="804" y="772" name="topright"/>
	<outline>
		<contour>
			<point x="385" y="-12" type="curve" smooth="yes"/>
			<point x="555" y="-12"/>
			<point x="622" y="113"/>
			<point x="622" y="235" type="curve" smooth="yes"/>
			<point x="622" y="692" type="line"/>
			<point x="608" y="692" type="line" name="_corner02"/>
			<point x="608" y="245" type="line" smooth="yes"/>
			<point x="608" y="100"/>
			<point x="536" y="10"/>
			<point x="397" y="10" type="curve" smooth="yes"/>
			<point x="277" y="10"/>
			<point x="185" y="81"/>
			<point x="185" y="246" type="curve" smooth="yes"/>
			<point x="185" y="692" type="line" name="_corner01"/>
			<point x="135" y="692" type="line" name="_corner00"/>
			<point x="135" y="231" type="line" smooth="yes"/>
			<point x="135" y="67"/>
			<point x="250" y="-12"/>
		</contour>
		<contour>
			<point x="621" y="682" type="line"/>
			<point x="677" y="682"/>
			<point x="731" y="716"/>
			<point x="731" y="776" type="curve" smooth="yes"/>
			<point x="731" y="790"/>
			<point x="728" y="803"/>
			<point x="723" y="814" type="curve"/>
			<point x="631" y="814" type="line"/>
			<point x="631" y="804" type="line"/>
			<point x="672" y="801"/>
			<point x="687" y="775"/>
			<point x="687" y="749" type="curve" smooth="yes"/>
			<point x="687" y="714"/>
			<point x="660" y="692"/>
			<point x="621" y="692" type="curve"/>
		</contour>
	</outline>
</glyph>
<glyph name="circumflexcomb" format="2">
	<advance width="398"/>
	<unicode hex="0302"/>
	<anchor x="201" y="478" name="_top"/>
	<anchor x="201" y="702" name="top"/>
	<anchor x="199" y="629" name="top_tilde"/>
	<anchor x="318" y="605" name="top_viet"/>
	<outline>
		<contour>
			<point x="195" y="699" type="line"/>
			<point x="75" y="553" type="line"/>
			<point x="84" y="544" type="line"/>
			<point x="199" y="630" type="line"/>
			<point x="314" y="544" type="line"/>
			<point x="323" y="553" type="line"/>
			<point x="203" y="699" type="line"/>
		</contour>
	</outline>
</glyph>
<glyph name="dieresiscomb" format="2">
	<advance width="354"/>
	<unicode hex="0308"/>
	<anchor x="178" y="478" name="_top"/>
	<anchor x="178" y="639" name="top"/>
	<outline>
		<contour>
			<point x="89" y="549" type="curve" smooth="yes"/>
			<point x="114" y="549"/>
			<point x="133" y="568"/>
			<point x="133" y="593" type="curve" smooth="yes"/>
			<point x="133" y="618"/>
			<point x="114" y="637"/>
			<point x="89" y="637" type="curve" smooth="yes"/>
			<point x="64" y="637"/>
			<point x="45" y="618"/>
			<point x="45" y="593" type="curve" smooth="yes"/>
			<point x="45" y="568"/>
			<point x="64" y="549"/>
		</contour>
		<contour>
			<point x="265" y="549" type="curve" smooth="yes"/>
			<point x="290" y="549"/>
			<point x="309" y="568"/>
			<point x="309" y="593" type="curve" smooth="yes"/>
			<point x="309" y="618"/>
			<point x="290" y="637"/>
			<point x="265" y="637" type="curve" smooth="yes"/>
			<point x="240" y="637"/>
			<point x="221" y="618"/>
			<point x="221" y="593" type="curve" smooth="yes"/>
			<point x="221" y="568"/>
			<point x="240" y="549"/>
		</contour>
	</outline>
</glyph>
<glyph name="ringcomb" format="2">
	<advance width="308"/>
	<unicode hex="030A"/>
	<anchor x="145" y="477" name="_top"/>
	<anchor x="145" y="704" name="top"/>
	<outline>
		<contour>
			<point x="144" y="543" type="curve" smooth="yes"/>
			<point x="193" y="543"/>
			<point x="229" y="579"/>
			<point x="229" y="624" type="curve" smooth="yes"/>
			<point x="229" y="668"/>
			<point x="193" y="704"/>
			<point x="144" y="704" type="curve" smooth="yes"/>
			<point x="96" y="704"/>
			<point x="60" y="668"/>
			<point x="60" y="624" type="curve" smooth="yes"/>
			<point x="60" y="579"/>
			<point x="96" y="543"/>
		</contour>
		<contour>
			<point x="144" y="563" type="curve" smooth="yes"/>
			<point x="106" y="563"/>
			<point x="82" y="590"/>
			<point x="82" y="624" type="curve" smooth="yes"/>
			<point x="82" y="657"/>
			<point x="106" y="685"/>
			<point x="144" y="685" type="curve" smooth="yes"/>
			<point x="183" y="685"/>
			<point x="206" y="657"/>
			<point x="206" y="624" type="curve" smooth="yes"/>
			<point x="206" y="591"/>
			<point x="183" y="563"/>
		</contour>
	</outline>
</glyph>
<glyph name="cedillacomb" format="2">
	<advance width="308"/>
	<unicode hex="0327"/>
	<anchor x="138" y="0" name="_bottom"/>
	<anchor x="148" y="-224" name="bottom"/>
	<outline>
		<contour>
			<point x="143" y="-218" type="curve" smooth="yes"/>
			<point x="197" y="-218"/>
			<point x="236" y="-185"/>
			<point x="236" y="-138" type="curve" smooth="yes"/>
			<point x="236" y="-93"/>
			<point x="200" y="-64"/>
			<point x="134" y="-51" type="curve"/>
			<point x="150" y="-5" type="line"/>
			<point x="137" y="-5" type="line"/>
			<point x="110" y="-89" type="line"/>
			<point x="159" y="-97"/>
			<point x="197" y="-112"/>
			<point x="197" y="-153" type="curve" smooth="yes"/>
			<point x="197" y="-184"/>
			<point x="176" y="-206"/>
			<point x="140" y="-206" type="curve" smooth="yes"/>
			<point x="103" y="-206"/>
			<point x="73" y="-186"/>
			<point x="54" y="-150" type="curve"/>
			<point x="45" y="-156" type="line"/>
			<point x="66" y="-195"/>
			<point x="96" y="-218"/>
		</contour>
	</outline>
</glyph>
<glyph name="ogonekcomb" format="2">
	<advance width="291"/>
	<unicode hex="0328"/>
	<anchor x="207" y="11" name="_ogonek"/>
	<outline>
		<contour>
			<point x="131" y="-221" type="curve" smooth="yes"/>
			<point x="184" y="-221"/>
			<point x="217" y="-195"/>
			<point x="246" y="-166" type="curve"/>
			<point x="240" y="-159" type="line"/>
			<point x="206" y="-186"/>
			<point x="180" y="-192"/>
			<point x="153" y="-192" type="curve" smooth="yes"/>
			<point x="122" y="-192"/>
			<point x="96" y="-181"/>
			<point x="96" y="-136" type="curve" smooth="yes"/>
			<point x="96" y="-78"/>
			<point x="141" y="-26"/>
			<point x="221" y="18" type="curve"/>
			<point x="205" y="18" type="line"/>
			<point x="88" y="-44"/>
			<point x="45" y="-97"/>
			<point x="45" y="-149" type="curve" smooth="yes"/>
			<point x="45" y="-192"/>
			<point x="75" y="-221"/>
		</contour>
	</outline>
</glyph>
<glyph name="Omega" format="2">
	<advance width="774"/>
	<unicode hex="03A9"/>
	<outline>
		<contour>
			<point x="57" y="0" type="line"/>
			<point x="352" y="0" type="line"/>
			<point x="352" y="140" type="line"/>
			<point x="207" y="178"/>
			<point x="132" y="290"/>
			<point x="132" y="418" type="curve" smooth="yes"/>
			<point x="132" y="559"/>
			<point x="219" y="692"/>
			<point x="387" y="692" type="curve" smooth="yes"/>
			<point x="555" y="692"/>
			<point x="642" y="559"/>
			<point x="642" y="418" type="curve" smooth="yes"/>
			<point x="642" y="290"/>
			<point x="567" y="178"/>
			<point x="422" y="140" type="curve"/>
			<point x="422" y="0" type="line"/>
			<point x="717" y="0" type="line"/>
			<point x="717" y="150" type="line"/>
			<point x="705" y="150" type="line"/>
			<point x="688" y="66"/>
			<point x="677" y="40"/>
			<point x="582" y="40" type="curve" smooth="yes"/>
			<point x="437" y="40" type="line"/>
			<point x="437" y="130" type="line"/>
			<point x="594" y="161"/>
			<point x="697" y="267"/>
			<point x="697" y="411" type="curve" smooth="yes"/>
			<point x="697" y="566"/>
			<point x="577" y="704"/>
			<point x="387" y="704" type="curve" smooth="yes"/>
			<point x="197" y="704"/>
			<point x="77" y="566"/>
			<point x="77" y="411" type="curve" smooth="yes"/>
			<point x="77" y="267"/>
			<point x="180" y="161"/>
			<point x="337" y="130" type="curve"/>
			<point x="337" y="40" type="line"/>
			<point x="188" y="40" type="line" smooth="yes"/>
			<point x="96" y="40"/>
			<point x="84" y="66"/>
			<point x="69" y="150" type="curve"/>
			<point x="57" y="150" type="line"/>
		</contour>
	</outline>
</glyph>
<glyph name="Germandbls" format="2">
	<advance width="687"/>
	<unicode hex="1E9E"/>
	<outline>
		<contour>
			<point x="373" y="-17" type="line"/>
			<point x="550" y="-2"/>
			<point x="637" y="101"/>
			<point x="637" y="221" type="curve" smooth="yes"/>
			<point x="637" y="341"/>
			<point x="549" y="399"/>
			<point x="386" y="405" type="curve"/>
			<point x="402" y="397" type="line"/>
			<point x="597" y="682" type="line"/>
			<point x="597" y="692" type="line"/>
			<point x="175" y="692" type="line"/>
			<point x="175" y="680" type="line" name="🧨"/>
			<point x="550" y="680" type="line"/>
			<point x="545" y="686" type="line"/>
			<point x="351" y="404" type="line"/>
			<point x="355" y="391" type="line"/>
			<point x="469" y="391"/>
			<point x="582" y="376"/>
			<point x="582" y="211" type="curve" smooth="yes"/>
			<point x="582" y="67"/>
			<point x="495" y="9"/>
			<point x="371" y="-5" type="curve"/>
		</contour>
		<contour>
			<point x="150" y="0" type="line" name="_corner01"/>
			<point x="200" y="0" type="line" name="_corner02"/>
			<point x="200" y="692" type="line" name="🔥"/>
			<point x="150" y="692" type="line" name="_corner00"/>
		</contour>
	</outline>
</glyph>
<glyph name="endash" format="2">
	<advance width="505"/>
	<unicode hex="2013"/>
	<outline>
		<contour>
			<point x="40" y="261" type="line"/>
			<point x="465" y="261" type="line"/>
			<point x="465" y="291" type="line"/>
			<point x="40" y="291" type="line"/>
		</contour>
	</outline>
</glyph>
<glyph name="dagger" format="2">
	<advance width="469"/>
	<unicode hex="2020"/>
	<outline>
		<contour>
			<point x="417" y="547" type="line"/>
			<point x="417" y="499"/>
			<point x="408" y="467" name="❌"/>
			<point x="360" y="467" type="curve" smooth="yes" name="❌"/>
			<point x="291" y="467" type="line" smooth="yes" name="❌"/>
			<point x="262" y="467" name="❌"/>
			<point x="241" y="493"/>
			<point x="241" y="517" type="curve" smooth="yes"/>
			<point x="241" y="579" type="line" smooth="yes"/>
			<point x="241" y="620"/>
			<point x="274" y="641"/>
			<point x="323" y="641" type="curve"/>
			<point x="323" y="653" type="line"/>
			<point x="146" y="653" type="line"/>
			<point x="146" y="641" type="line"/>
			<point x="195" y="641"/>
			<point x="228" y="620"/>
			<point x="228" y="579" type="curve" smooth="yes"/>
			<point x="228" y="517" type="line" smooth="yes"/>
			<point x="228" y="493"/>
			<point x="207" y="467" name="❌"/>
			<point x="178" y="467" type="curve" smooth="yes" name="❌"/>
			<point x="109" y="467" type="line" smooth="yes" name="❌"/>
			<point x="66" y="467" name="❌"/>
			<point x="52" y="499"/>
			<point x="52" y="547" type="curve"/>
			<point x="40" y="547" type="line"/>
			<point x="40" y="375" type="line"/>
			<point x="52" y="375" type="line"/>
			<point x="52" y="423"/>
			<point x="66" y="455"/>
			<point x="109" y="455" type="curve" smooth="yes"/>
			<point x="178" y="455" type="line" smooth="yes"/>
			<point x="207" y="455"/>
			<point x="228" y="429"/>
			<point x="228" y="405" type="curve" smooth="yes"/>
			<point x="228" y="379" type="line" smooth="yes"/>
			<point x="228" y="324"/>
			<point x="195" y="286"/>
			<point x="136" y="280" type="curve"/>
			<point x="136" y="270" type="line"/>
			<point x="184" y="242"/>
			<point x="217" y="212"/>
			<point x="228" y="-72" type="curve"/>
			<point x="241" y="-72" type="line"/>
			<point x="252" y="212"/>
			<point x="285" y="242"/>
			<point x="333" y="270" type="curve"/>
			<point x="333" y="280" type="line"/>
			<point x="274" y="286"/>
			<point x="241" y="324"/>
			<point x="241" y="379" type="curve" smooth="yes"/>
			<point x="241" y="405" type="line" smooth="yes"/>
			<point x="241" y="429"/>
			<point x="262" y="455"/>
			<point x="291" y="455" type="curve" smooth="yes"/>
			<point x="360" y="455" type="line" smooth="yes"/>
			<point x="408" y="455"/>
			<point x="417" y="423"/>
			<point x="417" y="375" type="curve"/>
			<point x="429" y="375" type="line"/>
			<point x="429" y="547" type="line"/>
		</contour>
	</outline>
</glyph>
<glyph name="guilsinglleft" format="2">
	<advance width="385"/>
	<unicode hex="2039"/>
	<outline>
		<contour>
			<point x="290" y="59" type="curve"/>
			<point x="305" y="67" type="line"/>
			<point x="261" y="147"/>
			<point x="205" y="191"/>
			<point x="137" y="243" type="curve"/>
			<point x="137" y="245" type="line"/>
			<point x="205" y="297"/>
			<point x="261" y="341"/>
			<point x="305" y="421" type="curve"/>
			<point x="290" y="429" type="line"/>
			<point x="234" y="358"/>
			<point x="176" y="316"/>
			<point x="70" y="261" type="curve"/>
			<point x="70" y="227" type="line"/>
			<point x="176" y="172"/>
			<point x="234" y="130"/>
		</contour>
	</outline>
</glyph>
<glyph name="zerosuperior" format="2">
	<advance width="359"/>
	<unicode hex="2070"/>
	<outline>
		<contour>
			<point x="179" y="380" type="curve" smooth="yes"/>
			<point x="256" y="380"/>
			<point x="319" y="443"/>
			<point x="319" y="542" type="curve" smooth="yes"/>
			<point x="319" y="644"/>
			<point x="256" y="704"/>
			<point x="179" y="704" type="curve" smooth="yes"/>
			<point x="103" y="704"/>
			<point x="40" y="644"/>
			<point x="40" y="542" type="curve" smooth="yes"/>
			<point x="40" y="443"/>
			<point x="103" y="380"/>
		</contour>
		<contour>
			<point x="179" y="390" type="curve" smooth="yes"/>
			<point x="120" y="390"/>
			<point x="85" y="451"/>
			<point x="85" y="542" type="curve" smooth="yes"/>
			<point x="85" y="637"/>
			<point x="120" y="694"/>
			<point x="179" y="694" type="curve" smooth="yes"/>
			<point x="239" y="694"/>
			<point x="274" y="637"/>
			<point x="274" y="542" type="curve" smooth="yes"/>
			<point x="274" y="451"/>
			<point x="239" y="390"/>
		</contour>
	</outline>
</glyph>
<glyph name="foursuperior" format="2">
	<advance width="313"/>
	<unicode hex="2074"/>
	<outline>
		<contour>
			<point x="149" y="387" type="line"/>
			<point x="271" y="387" type="line"/>
			<point x="271" y="397" type="line"/>
			<point x="247" y="397"/>
			<point x="238" y="407"/>
			<point x="238" y="422" type="curve" smooth="yes"/>
			<point x="238" y="464" type="line"/>
			<point x="293" y="464" type="line"/>
			<point x="293" y="489" type="line"/>
			<point x="238" y="489" type="line"/>
			<point x="238" y="692" type="line"/>
			<point x="206" y="692" type="line"/>
			<point x="36" y="476" type="line"/>
			<point x="40" y="464" type="line"/>
			<point x="189" y="464" type="line"/>
			<point x="189" y="422" type="line" smooth="yes"/>
			<point x="189" y="407"/>
			<point x="180" y="397"/>
			<point x="149" y="397" type="curve"/>
		</contour>
		<contour>
			<point x="59" y="489" type="line"/>
			<point x="189" y="654" type="line"/>
			<point x="189" y="489" type="line"/>
		</contour>
	</outline>
</glyph>
<glyph name="fivesuperior" format="2">
	<advance width="261"/>
	<unicode hex="2075"/>
	<outline>
		<contour>
			<point x="25" y="373" type="line"/>
			<point x="153" y="378"/>
			<point x="227" y="434"/>
			<point x="227" y="499" type="curve" smooth="yes"/>
			<point x="227" y="541"/>
			<point x="196" y="575"/>
			<point x="137" y="575" type="curve" smooth="yes"/>
			<point x="83" y="575"/>
			<point x="54" y="548"/>
			<point x="30" y="518" type="curve"/>
			<point x="36" y="516" type="line"/>
			<point x="57" y="676" type="line"/>
			<point x="51" y="652" type="line"/>
			<point x="208" y="652" type="line"/>
			<point x="215" y="692" type="line"/>
			<point x="47" y="692" type="line"/>
			<point x="26" y="515" type="line"/>
			<point x="35" y="511" type="line"/>
			<point x="61" y="540"/>
			<point x="85" y="555"/>
			<point x="120" y="555" type="curve" smooth="yes"/>
			<point x="161" y="555"/>
			<point x="182" y="533"/>
			<point x="182" y="490" type="curve" smooth="yes"/>
			<point x="182" y="430"/>
			<point x="137" y="391"/>
			<point x="24" y="383" type="curve"/>
		</contour>
	</outline>
</glyph>
<glyph name="eightsuperior" format="2">
	<advance width="340"/>
	<unicode hex="2078"/>
	<outline>
		<contour>
			<point x="165" y="382" type="curve" smooth="yes"/>
			<point x="225" y="382"/>
			<point x="276" y="415"/>
			<point x="276" y="471" type="curve" smooth="yes"/>
			<point x="276" y="571"/>
			<point x="111" y="558"/>
			<point x="111" y="647" type="curve" smooth="yes"/>
			<point x="111" y="675"/>
			<point x="127" y="695"/>
			<point x="162" y="695" type="curve" smooth="yes"/>
			<point x="196" y="695"/>
			<point x="217" y="675"/>
			<point x="217" y="633" type="curve" smooth="yes"/>
			<point x="217" y="609"/>
			<point x="211" y="584"/>
			<point x="179" y="567" type="curve"/>
			<point x="180" y="561" type="line"/>
			<point x="246" y="579"/>
			<point x="263" y="609"/>
			<point x="263" y="636" type="curve" smooth="yes"/>
			<point x="263" y="677"/>
			<point x="222" y="704"/>
			<point x="168" y="704" type="curve" smooth="yes"/>
			<point x="111" y="704"/>
			<point x="71" y="674"/>
			<point x="71" y="628" type="curve" smooth="yes"/>
			<point x="71" y="535"/>
			<point x="236" y="551"/>
			<point x="236" y="453" type="curve" smooth="yes"/>
			<point x="236" y="420"/>
			<point x="217" y="392"/>
			<point x="173" y="392" type="curve" smooth="yes"/>
			<point x="127" y="392"/>
			<point x="97" y="417"/>
			<point x="97" y="463" type="curve" smooth="yes"/>
			<point x="97" y="497"/>
			<point x="112" y="531"/>
			<point x="151" y="549" type="curve"/>
			<point x="149" y="555" type="line"/>
			<point x="92" y="540"/>
			<point x="54" y="506"/>
			<point x="54" y="463" type="curve" smooth="yes"/>
			<point x="54" y="412"/>
			<point x="105" y="382"/>
		</contour>
	</outline>
</glyph>
<glyph name="naira" format="2">
	<advance width="756"/>
	<unicode hex="20A6"/>
	<note>
		uni20A6
	</note>
	<outline>
		<contour>
			<point x="592" y="0" type="line" name="🔥"/>
			<point x="606" y="0" type="line"/>
			<point x="606" y="555" type="line" smooth="yes"/>
			<point x="606" y="621"/>
			<point x="639" y="634"/>
			<point x="711" y="634" type="curve"/>
			<point x="711" y="650" type="line"/>
			<point x="466" y="650" type="line"/>
			<point x="466" y="634" type="line"/>
			<point x="552" y="634"/>
			<point x="592" y="621"/>
			<point x="592" y="555" type="curve" smooth="yes"/>
			<point x="592" y="45" type="line" name="🔥"/>
			<point x="595" y="83" type="line"/>
			<point x="136" y="650" type="line"/>
			<point x="45" y="650" type="line"/>
			<point x="45" y="634" type="line"/>
			<point x="82" y="623"/>
			<point x="109" y="600"/>
			<point x="155" y="540" type="curve"/>
		</contour>
		<contour>
			<point x="45" y="0" type="line"/>
			<point x="290" y="0" type="line"/>
			<point x="290" y="16" type="line"/>
			<point x="204" y="16"/>
			<point x="164" y="29"/>
			<point x="164" y="95" type="curve" smooth="yes"/>
			<point x="164" y="559" type="line"/>
			<point x="150" y="587" type="line"/>
			<point x="150" y="95" type="line" smooth="yes"/>
			<point x="150" y="29"/>
			<point x="117" y="16"/>
			<point x="45" y="16" type="curve"/>
		</contour>
		<contour>
			<point x="80" y="266" type="line"/>
			<point x="690" y="266" type="line"/>
			<point x="690" y="278" type="line"/>
			<point x="80" y="278" type="line"/>
		</contour>
		<contour>
			<point x="80" y="386" type="line"/>
			<point x="690" y="386" type="line"/>
			<point x="690" y="398" type="line"/>
			<point x="80" y="398" type="line"/>
		</contour>
	</outline>
</glyph>
<glyph name="won" format="2">
	<advance width="1021"/>
	<unicode hex="20A9"/>
	<note>
		uni20A9
	</note>
	<outline>
		<contour>
			<point x="311" y="-12" type="line"/>
			<point x="321" y="-11"/>
			<point x="332" y="-4"/>
			<point x="341" y="9" type="curve"/>
			<point x="511" y="601" type="line"/>
			<point x="715" y="-12" type="line"/>
			<point x="725" y="-9"/>
			<point x="736" y="-4"/>
			<point x="744" y="9" type="curve"/>
			<point x="940" y="650" type="line" name="_corner00"/>
			<point x="919" y="650" type="line" name="_corner01"/>
			<point x="745" y="69" type="line"/>
			<point x="743" y="69" type="line"/>
			<point x="548" y="661" type="line"/>
			<point x="527" y="659"/>
			<point x="518" y="655"/>
			<point x="505" y="641" type="curve"/>
			<point x="340" y="69" type="line"/>
			<point x="338" y="69" type="line"/>
			<point x="161" y="650" type="line" name="_corner02"/>
			<point x="104" y="650" type="line" name="_corner03"/>
		</contour>
		<contour>
			<point x="75" y="293" type="line"/>
			<point x="965" y="293" type="line"/>
			<point x="965" y="305" type="line"/>
			<point x="75" y="305" type="line"/>
		</contour>
		<contour>
			<point x="75" y="393" type="line"/>
			<point x="965" y="393" type="line"/>
			<point x="965" y="405" type="line"/>
			<point x="75" y="405" type="line"/>
		</contour>
	</outline>
</glyph>
<glyph name="sheqel" format="2">
	<advance width="739"/>
	<unicode hex="20AA"/>
	<note>
		uni20AA
	</note>
	<outline>
		<contour>
			<point x="374" y="0" type="curve" smooth="yes"/>
			<point x="641" y="0" type="line"/>
			<point x="654" y="25" type="line"/>
			<point x="654" y="46" type="line" name="🧨"/>
			<point x="369" y="46" type="line" smooth="yes"/>
			<point x="310" y="46"/>
			<point x="277" y="62"/>
			<point x="277" y="111" type="curve" smooth="yes"/>
			<point x="277" y="452" type="line"/>
			<point x="264" y="452" type="line"/>
			<point x="264" y="105" type="line" smooth="yes"/>
			<point x="264" y="37"/>
			<point x="303" y="0"/>
		</contour>
		<contour>
			<point x="85" y="0" type="line"/>
			<point x="98" y="0" type="line"/>
			<point x="98" y="652" type="line" name="🧨"/>
			<point x="85" y="606" type="line"/>
		</contour>
		<contour>
			<point x="462" y="200" type="line"/>
			<point x="475" y="200" type="line"/>
			<point x="475" y="547" type="line" smooth="yes"/>
			<point x="475" y="615"/>
			<point x="436" y="652"/>
			<point x="365" y="652" type="curve" smooth="yes"/>
			<point x="98" y="652" type="line"/>
			<point x="85" y="607" type="line"/>
			<point x="85" y="606" type="line" name="🔥"/>
			<point x="370" y="606" type="line" smooth="yes"/>
			<point x="429" y="606"/>
			<point x="462" y="590"/>
			<point x="462" y="541" type="curve" smooth="yes"/>
		</contour>
		<contour>
			<point x="641" y="0" type="line" name="🧨"/>
			<point x="654" y="31" type="line" name="🧨"/>
			<point x="654" y="652" type="line"/>
			<point x="641" y="652" type="line"/>
		</contour>
	</outline>
</glyph>
<glyph name="tugrik" format="2">
	<advance width="632"/>
	<unicode hex="20AE"/>
	<note>
		uni20AE
	</note>
	<outline>
		<contour>
			<point x="291" y="0" type="line" name="_corner00"/>
			<point x="341" y="0" type="line" name="_corner01"/>
			<point x="341" y="648" type="line" name="🧨"/>
			<point x="291" y="648" type="line" name="🧨"/>
		</contour>
		<contour>
			<point x="175" y="171" type="line"/>
			<point x="460" y="336" type="line"/>
			<point x="454" y="345" type="line"/>
			<point x="168" y="180" type="line"/>
		</contour>
		<contour>
			<point x="175" y="291" type="line"/>
			<point x="460" y="456" type="line"/>
			<point x="454" y="465" type="line"/>
			<point x="168" y="300" type="line"/>
		</contour>
		<contour>
			<point x="20" y="440" type="line"/>
			<point x="32" y="440" type="line"/>
			<point x="81" y="606"/>
			<point x="98" y="636"/>
			<point x="155" y="636" type="curve" smooth="yes"/>
			<point x="477" y="636" type="line" smooth="yes"/>
			<point x="534" y="636"/>
			<point x="551" y="606"/>
			<point x="600" y="440" type="curve"/>
			<point x="612" y="440" type="line"/>
			<point x="591" y="670" type="line"/>
			<point x="584" y="670" type="line"/>
			<point x="564" y="653"/>
			<point x="557" y="650"/>
			<point x="537" y="650" type="curve" smooth="yes"/>
			<point x="95" y="650" type="line" smooth="yes"/>
			<point x="76" y="650"/>
			<point x="67" y="654"/>
			<point x="48" y="670" type="curve"/>
			<point x="41" y="670" type="line"/>
		</contour>
	</outline>
</glyph>
<glyph name="rupeeIndian" format="2">
	<advance width="583"/>
	<unicode hex="20B9"/>
	<note>
		uni20B9
	</note>
	<outline>
		<contour>
			<point x="435" y="0" type="curve"/>
			<point x="526" y="0" type="line"/>
			<point x="526" y="12" type="line"/>
			<point x="429" y="33"/>
			<point x="417" y="300"/>
			<point x="227" y="294" type="curve"/>
			<point x="227" y="296" type="line"/>
			<point x="350" y="307"/>
			<point x="446" y="365"/>
			<point x="446" y="477" type="curve" smooth="yes"/>
			<point x="446" y="568"/>
			<point x="383" y="652"/>
			<point x="224" y="652" type="curve" smooth="yes"/>
			<point x="43" y="652" type="line"/>
			<point x="43" y="640" type="line" name="🧨"/>
			<point x="198" y="640" type="line" smooth="yes"/>
			<point x="327" y="640"/>
			<point x="386" y="562"/>
			<point x="386" y="468" type="curve" smooth="yes"/>
			<point x="386" y="374"/>
			<point x="326" y="305"/>
			<point x="189" y="305" type="curve" smooth="yes"/>
			<point x="43" y="305" type="line"/>
			<point x="43" y="293" type="line"/>
			<point x="132" y="293" type="line" smooth="yes"/>
			<point x="322" y="293"/>
			<point x="327" y="197"/>
		</contour>
		<contour>
			<point x="43" y="462" type="line"/>
			<point x="523" y="462" type="line"/>
			<point x="523" y="474" type="line"/>
			<point x="43" y="474" type="line"/>
		</contour>
		<contour>
			<point x="43" y="640" type="line" name="🧨"/>
			<point x="523" y="640" type="line"/>
			<point x="523" y="652" type="line"/>
			<point x="43" y="652" type="line"/>
		</contour>
	</outline>
</glyph>
<glyph name="literSign" format="2">
	<advance width="505"/>
	<unicode hex="2113"/>
	<note>
		uni2113
	</note>
	<outline>
		<contour>
			<point x="304" y="18" type="curve" smooth="yes"/>
			<point x="215" y="18"/>
			<point x="163" y="106"/>
			<point x="163" y="328" type="curve" smooth="yes"/>
			<point x="163" y="570"/>
			<point x="225" y="690"/>
			<point x="314" y="690" type="curve" smooth="yes"/>
			<point x="353" y="690"/>
			<point x="388" y="667"/>
			<point x="388" y="576" type="curve" smooth="yes"/>
			<point x="388" y="392"/>
			<point x="246" y="213"/>
			<point x="10" y="157" type="curve"/>
			<point x="10" y="145" type="line"/>
			<point x="245" y="193"/>
			<point x="435" y="402"/>
			<point x="435" y="571" type="curve" smooth="yes"/>
			<point x="435" y="651"/>
			<point x="389" y="704"/>
			<point x="324" y="704" type="curve" smooth="yes"/>
			<point x="220" y="704"/>
			<point x="116" y="573"/>
			<point x="116" y="298" type="curve" smooth="yes"/>
			<point x="116" y="59"/>
			<point x="195" y="-12"/>
			<point x="278" y="-12" type="curve" smooth="yes"/>
			<point x="341" y="-12"/>
			<point x="397" y="29"/>
			<point x="431" y="101" type="curve"/>
			<point x="420" y="106" type="line"/>
			<point x="379" y="34"/>
			<point x="340" y="18"/>
		</contour>
	</outline>
</glyph>
<glyph name="numero" format="2">
	<advance width="1087"/>
	<unicode hex="2116"/>
	<note>
		uni2116
	</note>
	<outline>
		<contour>
			<point x="786" y="358" type="line"/>
			<point x="1033" y="358" type="line"/>
			<point x="1033" y="373" type="line"/>
			<point x="786" y="373" type="line"/>
		</contour>
		<component base="N"/>
		<component base="ordmasculine" xOffset="758" yOffset="92"/>
	</outline>
</glyph>
<glyph name="trademark" format="2">
	<advance width="784"/>
	<unicode hex="2122"/>
	<outline>
		<contour>
			<point x="510" y="390" type="line"/>
			<point x="518" y="392"/>
			<point x="529" y="397"/>
			<point x="535" y="403" type="curve"/>
			<point x="626" y="640" type="line"/>
			<point x="621" y="640" type="line"/>
			<point x="633" y="441" type="line" smooth="yes"/>
			<point x="635" y="415"/>
			<point x="619" y="408"/>
			<point x="596" y="405" type="curve"/>
			<point x="596" y="393" type="line"/>
			<point x="714" y="393" type="line"/>
			<point x="714" y="405" type="line"/>
			<point x="693" y="407"/>
			<point x="679" y="415"/>
			<point x="677" y="445" type="curve" smooth="yes"/>
			<point x="666" y="620" type="line" smooth="yes"/>
			<point x="665" y="638"/>
			<point x="671" y="651"/>
			<point x="703" y="651" type="curve"/>
			<point x="703" y="664" type="line"/>
			<point x="623" y="664" type="line"/>
			<point x="538" y="445" type="line"/>
			<point x="537" y="445" type="line"/>
			<point x="442" y="664" type="line"/>
			<point x="365" y="664" type="line"/>
			<point x="365" y="651" type="line"/>
			<point x="392" y="649"/>
			<point x="399" y="634"/>
			<point x="398" y="615" type="curve" smooth="yes"/>
			<point x="388" y="445" type="line" smooth="yes"/>
			<point x="386" y="418"/>
			<point x="378" y="406"/>
			<point x="347" y="405" type="curve"/>
			<point x="347" y="393" type="line"/>
			<point x="442" y="393" type="line"/>
			<point x="442" y="405" type="line"/>
			<point x="407" y="405"/>
			<point x="399" y="412"/>
			<point x="401" y="441" type="curve" smooth="yes"/>
			<point x="413" y="642" type="line"/>
			<point x="403" y="642" type="line"/>
		</contour>
		<contour>
			<point x="127" y="393" type="line"/>
			<point x="256" y="393" type="line"/>
			<point x="256" y="405" type="line"/>
			<point x="229" y="405"/>
			<point x="216" y="416"/>
			<point x="216" y="430" type="curve" smooth="yes"/>
			<point x="216" y="659" type="line" name="🧨"/>
			<point x="167" y="659" type="line" name="🧨"/>
			<point x="167" y="430" type="line" smooth="yes"/>
			<point x="167" y="416"/>
			<point x="155" y="405"/>
			<point x="127" y="405" type="curve"/>
		</contour>
		<contour>
			<point x="60" y="572" type="line"/>
			<point x="72" y="572" type="line"/>
			<point x="91" y="639"/>
			<point x="97" y="652"/>
			<point x="118" y="652" type="curve" smooth="yes"/>
			<point x="266" y="652" type="line" smooth="yes"/>
			<point x="288" y="652"/>
			<point x="294" y="639"/>
			<point x="312" y="572" type="curve"/>
			<point x="324" y="572" type="line"/>
			<point x="315" y="672" type="line"/>
			<point x="306" y="672" type="line"/>
			<point x="301" y="665"/>
			<point x="298" y="664"/>
			<point x="288" y="664" type="curve" smooth="yes"/>
			<point x="96" y="664" type="line" smooth="yes"/>
			<point x="86" y="664"/>
			<point x="82" y="666"/>
			<point x="78" y="672" type="curve"/>
			<point x="68" y="672" type="line"/>
		</contour>
	</outline>
</glyph>
<glyph name="product" format="2">
	<advance width="695"/>
	<unicode hex="220F"/>
	<outline>
		<contour>
			<point x="150" y="-120" type="line" name="_corner02"/>
			<point x="205" y="-120" type="line" name="_corner00"/>
			<point x="205" y="692" type="line" name="🧨"/>
			<point x="150" y="692" type="line" name="_corner01"/>
		</contour>
		<contour>
			<point x="490" y="-120" type="line" name="_corner05"/>
			<point x="545" y="-120" type="line" name="_corner03"/>
			<point x="545" y="692" type="line" name="_corner04"/>
			<point x="490" y="692" type="line" name="🧨"/>
		</contour>
		<contour>
			<point x="190" y="692" type="line" name="🧨"/>
			<point x="190" y="679" type="line"/>
			<point x="505" y="679" type="line"/>
			<point x="505" y="692" type="line" name="🧨"/>
		</contour>
	</outline>
</glyph>
<glyph name="infinity" format="2">
	<advance width="766"/>
	<unicode hex="221E"/>
	<outline>
		<contour>
			<point x="569" y="151" type="curve" smooth="yes"/>
			<point x="666" y="151"/>
			<point x="726" y="223"/>
			<point x="726" y="356" type="curve" smooth="yes"/>
			<point x="726" y="499"/>
			<point x="656" y="564"/>
			<point x="565" y="564" type="curve" smooth="yes"/>
			<point x="346" y="564"/>
			<point x="382" y="196"/>
			<point x="184" y="196" type="curve" smooth="yes"/>
			<point x="110" y="196"/>
			<point x="52" y="247"/>
			<point x="52" y="353" type="curve" smooth="yes"/>
			<point x="52" y="456"/>
			<point x="106" y="511"/>
			<point x="212" y="511" type="curve" smooth="yes"/>
			<point x="278" y="511"/>
			<point x="329" y="490"/>
			<point x="380" y="336" type="curve"/>
			<point x="385" y="338" type="line"/>
			<point x="339" y="524"/>
			<point x="270" y="564"/>
			<point x="200" y="564" type="curve" smooth="yes"/>
			<point x="88" y="564"/>
			<point x="40" y="462"/>
			<point x="40" y="358" type="curve" smooth="yes"/>
			<point x="40" y="227"/>
			<point x="116" y="155"/>
			<point x="209" y="155" type="curve" smooth="yes"/>
			<point x="418" y="155"/>
			<point x="385" y="522"/>
			<point x="580" y="522" type="curve" smooth="yes"/>
			<point x="647" y="522"/>
			<point x="714" y="479"/>
			<point x="714" y="362" type="curve" smooth="yes"/>
			<point x="714" y="249"/>
			<point x="656" y="200"/>
			<point x="565" y="200" type="curve" smooth="yes"/>
			<point x="486" y="200"/>
			<point x="432" y="236"/>
			<point x="384" y="364" type="curve"/>
			<point x="380" y="364" type="line"/>
			<point x="414" y="226"/>
			<point x="475" y="151"/>
		</contour>
	</outline>
</glyph>
<glyph name="integral" format="2">
	<advance width="510"/>
	<unicode hex="222B"/>
	<outline>
		<contour>
			<point x="45" y="-218" type="curve" smooth="yes"/>
			<point x="117" y="-218"/>
			<point x="168" y="-164"/>
			<point x="194" y="-41" type="curve" smooth="yes"/>
			<point x="327" y="578" type="line" smooth="yes"/>
			<point x="344" y="657"/>
			<point x="366" y="690"/>
			<point x="411" y="690" type="curve" smooth="yes"/>
			<point x="466" y="690"/>
			<point x="480" y="641"/>
			<point x="490" y="568" type="curve"/>
			<point x="500" y="568" type="line"/>
			<point x="500" y="679" type="line"/>
			<point x="476" y="697"/>
			<point x="447" y="704"/>
			<point x="419" y="704" type="curve" smooth="yes"/>
			<point x="347" y="704"/>
			<point x="297" y="650"/>
			<point x="271" y="527" type="curve" smooth="yes"/>
			<point x="138" y="-92" type="line" smooth="yes"/>
			<point x="121" y="-171"/>
			<point x="99" y="-204"/>
			<point x="53" y="-204" type="curve" smooth="yes"/>
			<point x="-1" y="-204"/>
			<point x="-15" y="-160"/>
			<point x="-26" y="-82" type="curve"/>
			<point x="-36" y="-82" type="line"/>
			<point x="-36" y="-193" type="line"/>
			<point x="-12" y="-211"/>
			<point x="17" y="-218"/>
		</contour>
	</outline>
</glyph>
<glyph name="whiteSquare" format="2">
	<advance width="856"/>
	<unicode hex="25A1"/>
	<note>
		uni25A1
	</note>
	<outline>
		<contour>
			<point x="100" y="0" type="line"/>
			<point x="756" y="0" type="line"/>
			<point x="756" y="692" type="line"/>
			<point x="100" y="692" type="line"/>
		</contour>
		<contour>
			<point x="113" y="11" type="line"/>
			<point x="113" y="681" type="line"/>
			<point x="743" y="681" type="line"/>
			<point x="743" y="11" type="line"/>
		</contour>
	</outline>
</glyph>
<glyph name="_corner.digit" format="2">
	<advance width="600"/>
	<outline>
		<contour>
			<point x="0" y="0" type="move"/>
			<point x="110" y="0" type="line"/>
			<point x="110" y="10" type="line"/>
			<point x="32" y="10"/>
			<point x="0" y="39"/>
			<point x="0" y="93" type="curve"/>
		</contour>
	</outline>
</glyph>
<glyph name="_corner.serifleft" format="2">
	<advance width="594"/>
	<outline>
		<contour>
			<point x="0" y="67" type="move"/>
			<point x="0" y="17"/>
			<point x="-65" y="13"/>
			<point x="-80" y="13" type="curve"/>
			<point x="-80" y="0" type="line"/>
			<point x="10" y="0" type="line"/>
		</contour>
	</outline>
</glyph>
<glyph name="_corner.uppercase" format="2">
	<advance width="600"/>
	<outline>
		<contour>
			<point x="-10" y="0" type="move"/>
			<point x="105" y="0" type="line"/>
			<point x="105" y="16" type="line"/>
			<point x="33" y="16"/>
			<point x="0" y="29"/>
			<point x="0" y="95" type="curve"/>
		</contour>
	</outline>
</glyph>
<glyph name="_corner.uppercaseWIDE" format="2">
	<advance width="600"/>
	<outline>
		<contour>
			<point x="0" y="0" type="move"/>
			<point x="95" y="0" type="line"/>
			<point x="95" y="26" type="line"/>
			<point x="37" y="26"/>
			<point x="0" y="45"/>
			<point x="0" y="89" type="curve"/>
		</contour>
	</outline>
</glyph>
<glyph name=".notdef" format="2">
	<advance width="986"/>
	<outline>
		<contour>
			<point x="493" y="-164" type="curve" smooth="yes"/>
			<point x="756" y="-164"/>
			<point x="946" y="27"/>
			<point x="946" y="289" type="curve" smooth="yes"/>
			<point x="946" y="552"/>
			<point x="756" y="742"/>
			<point x="493" y="742" type="curve" smooth="yes"/>
			<point x="230" y="742"/>
			<point x="40" y="552"/>
			<point x="40" y="289" type="curve" smooth="yes"/>
			<point x="40" y="27"/>
			<point x="230" y="-164"/>
		</contour>
		<contour>
			<point x="469" y="-12" type="curve" smooth="yes"/>
			<point x="445" y="-12"/>
			<point x="424" y="8"/>
			<point x="424" y="34" type="curve" smooth="yes"/>
			<point x="424" y="61"/>
			<point x="445" y="81"/>
			<point x="469" y="81" type="curve" smooth="yes"/>
			<point x="495" y="81"/>
			<point x="516" y="61"/>
			<point x="516" y="34" type="curve" smooth="yes"/>
			<point x="516" y="8"/>
			<point x="495" y="-12"/>
		</contour>
		<contour>
			<point x="456" y="148" type="line"/>
			<point x="433" y="173"/>
			<point x="429" y="207"/>
			<point x="429" y="228" type="curve" smooth="yes"/>
			<point x="429" y="345"/>
			<point x="600" y="366"/>
			<point x="600" y="470" type="curve" smooth="yes"/>
			<point x="600" y="520"/>
			<point x="557" y="554"/>
			<point x="495" y="554" type="curve" smooth="yes"/>
			<point x="412" y="554"/>
			<point x="358" y="503"/>
			<point x="365" y="421" type="curve"/>
			<point x="336" y="421" type="line"/>
			<point x="330" y="525" type="line"/>
			<point x="363" y="559"/>
			<point x="417" y="591"/>
			<point x="499" y="591" type="curve" smooth="yes"/>
			<point x="606" y="591"/>
			<point x="652" y="531"/>
			<point x="652" y="460" type="curve" smooth="yes"/>
			<point x="652" y="320"/>
			<point x="467" y="301"/>
			<point x="467" y="196" type="curve" smooth="yes"/>
			<point x="467" y="179"/>
			<point x="471" y="167"/>
			<point x="477" y="157" type="curve"/>
		</contour>
	</outline>
</glyph>
<glyph name="brevecomb.case" format="2">
	<advance width="307"/>
	<anchor x="154" y="640" name="_top"/>
	<anchor x="154" y="865" name="top"/>
	<anchor x="154" y="794" name="top_viet"/>
	<outline>
		<contour>
			<point x="154" y="745" type="curve" smooth="yes"/>
			<point x="218" y="745"/>
			<point x="262" y="780"/>
			<point x="262" y="875" type="curve"/>
			<point x="247" y="875" type="line"/>
			<point x="247" y="816"/>
			<point x="207" y="793"/>
			<point x="154" y="793" type="curve" smooth="yes"/>
			<point x="100" y="793"/>
			<point x="60" y="816"/>
			<point x="60" y="875" type="curve"/>
			<point x="45" y="875" type="line"/>
			<point x="45" y="782"/>
			<point x="90" y="745"/>
		</contour>
	</outline>
</glyph>
<glyph name="caroncomb.alt" format="2">
	<advance width="151"/>
	<anchor x="10" y="730" name="_topright"/>
	<outline>
		<contour>
			<point x="45" y="522" type="curve"/>
			<point x="66" y="522" type="line"/>
			<point x="85" y="591"/>
			<point x="98" y="661"/>
			<point x="106" y="730" type="curve"/>
			<point x="59" y="730" type="line"/>
			<point x="59" y="668"/>
			<point x="56" y="604"/>
		</contour>
	</outline>
</glyph>
<glyph name="four.lf" format="2">
	<advance width="576"/>
	<outline>
		<contour>
			<point x="347" y="0" type="line" name="_corner00"/>
			<point x="392" y="0" type="line" name="_corner01"/>
			<point x="392" y="686" type="line"/>
			<point x="361" y="686" type="line"/>
			<point x="36" y="217" type="line"/>
			<point x="41" y="208" type="line"/>
			<point x="508" y="208" type="line"/>
			<point x="508" y="243" type="line"/>
			<point x="61" y="243" type="line"/>
			<point x="63" y="236" type="line"/>
			<point x="345" y="646" type="line"/>
			<point x="347" y="646" type="line"/>
		</contour>
	</outline>
</glyph>
<glyph name="gravecomb.case" format="2">
	<advance width="264"/>
	<anchor x="157" y="640" name="_top"/>
	<anchor x="157" y="870" name="top"/>
	<outline>
		<contour>
			<point x="212" y="749" type="line"/>
			<point x="219" y="758" type="line"/>
			<point x="112" y="870" type="line"/>
			<point x="45" y="870" type="line"/>
			<point x="45" y="857" type="line"/>
		</contour>
	</outline>
</glyph>
<glyph name="horncomb.case" format="2">
	<advance width="210"/>
	<anchor x="55" y="478" name="_topright"/>
	<anchor x="216" y="558" name="topright"/>
	<outline>
		<contour>
			<point x="45" y="468" type="line"/>
			<point x="106" y="468"/>
			<point x="165" y="510"/>
			<point x="165" y="577" type="curve" smooth="yes"/>
			<point x="165" y="595"/>
			<point x="161" y="610"/>
			<point x="157" y="620" type="curve"/>
			<point x="65" y="620" type="line"/>
			<point x="65" y="610" type="line"/>
			<point x="106" y="607"/>
			<point x="121" y="578"/>
			<point x="121" y="548" type="curve" smooth="yes"/>
			<point x="121" y="506"/>
			<point x="90" y="478"/>
			<point x="45" y="478" type="curve"/>
		</contour>
	</outline>
</glyph>
<glyph name="macroncomb.case" format="2">
	<advance width="382"/>
	<anchor x="191" y="640" name="_top"/>
	<anchor x="191" y="795" name="top"/>
	<outline>
		<contour>
			<point x="45" y="795" type="line"/>
			<point x="45" y="778" type="line"/>
			<point x="337" y="778" type="line"/>
			<point x="337" y="795" type="line"/>
		</contour>
	</outline>
</glyph>
<glyph name="ogonekcomb.case" format="2">
	<advance width="347"/>
	<anchor x="240" y="11" name="_ogonek"/>
	<outline>
		<contour>
			<point x="154" y="-221" type="curve" smooth="yes"/>
			<point x="212" y="-221"/>
			<point x="247" y="-190"/>
			<point x="279" y="-156" type="curve"/>
			<point x="273" y="-149" type="line"/>
			<point x="235" y="-184"/>
			<point x="206" y="-192"/>
			<point x="176" y="-192" type="curve" smooth="yes"/>
			<point x="145" y="-192"/>
			<point x="119" y="-181"/>
			<point x="119" y="-136" type="curve" smooth="yes"/>
			<point x="119" y="-78"/>
			<point x="164" y="-26"/>
			<point x="244" y="18" type="curve"/>
			<point x="228" y="18" type="line"/>
			<point x="111" y="-44"/>
			<point x="68" y="-97"/>
			<point x="68" y="-149" type="curve" smooth="yes"/>
			<point x="68" y="-192"/>
			<point x="98" y="-221"/>
		</contour>
	</outline>
</glyph>
<glyph name="parenleft.case" format="2">
	<advance width="345"/>
	<outline>
		<contour>
			<point x="298" y="-140" type="curve"/>
			<point x="305" y="-130" type="line"/>
			<point x="191" y="-43"/>
			<point x="120" y="108"/>
			<point x="120" y="330" type="curve" smooth="yes"/>
			<point x="120" y="553"/>
			<point x="191" y="703"/>
			<point x="305" y="790" type="curve"/>
			<point x="298" y="800" type="line"/>
			<point x="162" y="724"/>
			<point x="65" y="559"/>
			<point x="65" y="330" type="curve" smooth="yes"/>
			<point x="65" y="101"/>
			<point x="162" y="-64"/>
		</contour>
	</outline>
</glyph>
<glyph name="periodcentered.loclCAT.case" format="2">
	<advance width="210"/>
	<anchor x="105" y="300" name="_dot"/>
	<outline>
		<contour>
			<point x="105" y="245" type="curve" smooth="yes"/>
			<point x="134" y="245"/>
			<point x="160" y="269"/>
			<point x="160" y="300" type="curve" smooth="yes"/>
			<point x="160" y="331"/>
			<point x="134" y="355"/>
			<point x="105" y="355" type="curve" smooth="yes"/>
			<point x="76" y="355"/>
			<point x="50" y="331"/>
			<point x="50" y="300" type="curve" smooth="yes"/>
			<point x="50" y="269"/>
			<point x="76" y="245"/>
		</contour>
	</outline>
</glyph>
<glyph name="periodcentered.loclCAT" format="2">
	<advance width="100"/>
	<outline>
		<contour>
			<point x="47" y="314" type="curve" smooth="yes"/>
			<point x="68" y="314"/>
			<point x="84" y="330"/>
			<point x="84" y="351" type="curve" smooth="yes"/>
			<point x="84" y="372"/>
			<point x="68" y="387"/>
			<point x="47" y="387" type="curve" smooth="yes"/>
			<point x="26" y="387"/>
			<point x="10" y="372"/>
			<point x="10" y="351" type="curve" smooth="yes"/>
			<point x="10" y="330"/>
			<point x="26" y="314"/>
		</contour>
	</outline>
</glyph>
<glyph name="slashshortcomb.case" format="2">
	<advance width="369"/>
	<anchor x="185" y="344" name="_center"/>
	<outline>
		<contour>
			<point x="55" y="221" type="line"/>
			<point x="324" y="455" type="line"/>
			<point x="314" y="467" type="line"/>
			<point x="45" y="232" type="line"/>
		</contour>
	</outline>
</glyph>
<glyph name="strokelongcomb.case" format="2">
	<advance width="805"/>
	<anchor x="403" y="313" name="_center"/>
	<outline>
		<contour>
			<point x="70" y="500" type="line"/>
			<point x="70" y="487" type="line"/>
			<point x="735" y="487" type="line"/>
			<point x="735" y="500" type="line"/>
		</contour>
	</outline>
</glyph>
<glyph name="tildecomb.case" format="2">
	<advance width="352"/>
	<anchor x="176" y="692" name="_top"/>
	<anchor x="176" y="866" name="top"/>
	<outline>
		<contour>
			<point x="56" y="794" type="line"/>
			<point x="72" y="820"/>
			<point x="95" y="833"/>
			<point x="115" y="833" type="curve" smooth="yes"/>
			<point x="150" y="833"/>
			<point x="180" y="794"/>
			<point x="219" y="794" type="curve" smooth="yes"/>
			<point x="248" y="794"/>
			<point x="278" y="816"/>
			<point x="307" y="873" type="curve"/>
			<point x="298" y="878" type="line"/>
			<point x="276" y="846"/>
			<point x="258" y="837"/>
			<point x="241" y="837" type="curve" smooth="yes"/>
			<point x="205" y="837"/>
			<point x="175" y="878"/>
			<point x="130" y="878" type="curve" smooth="yes"/>
			<point x="101" y="878"/>
			<point x="74" y="859"/>
			<point x="45" y="799" type="curve"/>
		</contour>
	</outline>
</glyph>
